<svg width="53.000000" height="53.000000" viewBox="0 0 53 53" fill="none" xmlns="http://www.w3.org/2000/svg" xmlns:xlink="http://www.w3.org/1999/xlink">
	<desc>
			Created with Pixso.
	</desc>
	<defs/>
	<path id="Vector" d="M45.23 7.76C40.23 2.75 33.57 0 26.5 0C19.42 0 12.76 2.75 7.76 7.76C2.75 12.76 0 19.42 0 26.5C0 33.57 2.75 40.23 7.76 45.23C12.76 50.24 19.42 53 26.5 53C33.57 53 40.23 50.24 45.23 45.23C50.24 40.23 53 33.57 53 26.5C53 19.42 50.24 12.76 45.23 7.76ZM26.5 47.79C14.75 47.79 5.2 38.24 5.2 26.5C5.2 26.48 5.2 26.46 5.2 26.44C5.2 26.43 5.2 26.43 5.2 26.42C5.2 26.41 5.2 26.41 5.2 26.4C5.25 14.8 14.63 5.36 26.21 5.2C26.23 5.2 26.25 5.2 26.28 5.2C26.29 5.2 26.31 5.2 26.32 5.2C26.38 5.2 26.44 5.2 26.5 5.2C38.24 5.2 47.79 14.75 47.79 26.5C47.79 38.24 38.24 47.79 26.5 47.79Z" fill="#FF3811" fill-opacity="1.000000" fill-rule="nonzero"/>
	<path id="Vector" d="M42.67 27.77C41.81 27.77 41.11 27.07 41.11 26.21C41.11 25.34 41.81 24.64 42.67 24.64L44.56 24.64C43.68 15.93 36.62 9.03 27.85 8.38L27.85 10.03C27.85 10.89 27.14 11.6 26.28 11.6C25.41 11.6 24.71 10.89 24.71 10.03L24.71 8.42C16.07 9.27 9.19 16.19 8.41 24.85L10.1 24.85C10.97 24.85 11.67 25.56 11.67 26.42C11.67 27.29 10.97 27.99 10.1 27.99L8.39 27.99C9.12 36.79 16.14 43.83 24.93 44.59L24.93 42.6C24.93 41.74 25.63 41.03 26.5 41.03C27.36 41.03 28.06 41.74 28.06 42.6L28.06 44.59C36.93 43.83 43.99 36.68 44.61 27.77L42.67 27.77ZM32.84 22.36L27.6 27.6C27.31 27.9 26.91 28.06 26.5 28.06C26.08 28.06 25.68 27.9 25.39 27.6L16.27 18.48C15.65 17.87 15.65 16.88 16.27 16.27C16.88 15.65 17.87 15.65 18.48 16.27L26.5 24.28L30.63 20.15C31.24 19.54 32.23 19.54 32.84 20.15C33.46 20.76 33.46 21.75 32.84 22.36Z" fill="#FF3811" fill-opacity="1.000000" fill-rule="nonzero"/>
</svg>
