<svg width="56.000000" height="56.000000" viewBox="0 0 56 56" fill="none" xmlns="http://www.w3.org/2000/svg" xmlns:xlink="http://www.w3.org/1999/xlink">
	<desc>
			Created with Pixso.
	</desc>
	<defs>
		<clipPath id="clip14_2072">
			<rect id="quote 1" width="56.000000" height="56.000000" fill="white" fill-opacity="0"/>
		</clipPath>
	</defs>
	<rect id="quote 1" width="56.000000" height="56.000000" fill="#FFFFFF" fill-opacity="0"/>
	<g clip-path="url(#clip14_2072)">
		<path id="Vector" d="M32 4L32 28L48 28C48 36.82 40.82 44 32 44L32 52C45.23 52 56 41.23 56 28L56 4L32 4Z" fill="#FF3811" fill-opacity="0.200000" fill-rule="nonzero"/>
		<path id="Vector" d="M0 28L16 28C16 36.82 8.82 44 0 44L0 52C13.23 52 24 28 24 28L24 4L0 4L0 28Z" fill="#FF3811" fill-opacity="0.200000" fill-rule="nonzero"/>
		<path id="Vector" d="M0 28L16 28C16 36.82 8.82 44 0 44L0 52C13.23 52 24 28 24 28L24 4L0 4L0 28Z" fill="#FF3811" fill-opacity="0.200000" fill-rule="nonzero"/>
	</g>
</svg>
