<svg width="41.000000" height="41.000000" viewBox="0 0 41 41" fill="none" xmlns="http://www.w3.org/2000/svg" xmlns:xlink="http://www.w3.org/1999/xlink">
	<desc>
			Created with Pixso.
	</desc>
	<defs>
		<clipPath id="clip13_1569">
			<rect id="001-timetable" width="40.857483" height="40.857483" fill="white" fill-opacity="0"/>
		</clipPath>
	</defs>
	<rect id="001-timetable" width="40.857483" height="40.857483" fill="#FFFFFF" fill-opacity="0"/>
	<g clip-path="url(#clip13_1569)">
		<path id="Vector" d="M30.08 19.31C24.14 19.31 19.31 24.14 19.31 30.08C19.31 36.02 24.14 40.85 30.08 40.85C36.02 40.85 40.85 36.02 40.85 30.08C40.85 24.14 36.02 19.31 30.08 19.31ZM34.87 31.28L30.08 31.28C29.42 31.28 28.88 30.74 28.88 30.08L28.88 25.29C28.88 24.63 29.42 24.09 30.08 24.09C30.74 24.09 31.28 24.63 31.28 25.29L31.28 28.88L34.87 28.88C35.53 28.88 36.06 29.42 36.06 30.08C36.06 30.74 35.53 31.28 34.87 31.28Z" fill="#FF3811" fill-opacity="1.000000" fill-rule="nonzero"/>
		<path id="Vector" d="M38.38 3.67C38.38 3 37.85 2.47 37.18 2.47L31.2 2.47L31.2 6.06C31.2 6.73 30.67 7.26 30 7.26C29.33 7.26 28.8 6.73 28.8 6.06L28.8 2.47L24.01 2.47L24.01 6.06C24.01 6.73 23.49 7.26 22.82 7.26C22.15 7.26 21.62 6.73 21.62 6.06L21.62 2.47L16.83 2.47L16.83 6.06C16.83 6.73 16.31 7.26 15.64 7.26C14.97 7.26 14.44 6.73 14.44 6.06L14.44 2.47L9.65 2.47L9.65 6.06C9.65 6.73 9.12 7.26 8.45 7.26C7.78 7.26 7.26 6.73 7.26 6.06L7.26 2.47L1.19 2.47C0.52 2.47 0 3 0 3.67L0 9.65L38.38 9.65L38.38 3.67Z" fill="#FFFFFF" fill-opacity="1.000000" fill-rule="nonzero"/>
		<path id="Vector" d="M18.03 24.01L18.32 24.01C18.75 23.17 19.25 22.35 19.85 21.62L18.03 21.62C17.37 21.62 16.83 21.09 16.83 20.42C16.83 19.76 17.37 19.23 18.03 19.23L20.42 19.23C20.91 19.23 21.33 19.52 21.52 19.94C23.81 18.01 26.77 16.83 30 16.83L27.61 16.83C26.94 16.83 26.41 16.3 26.41 15.64C26.41 14.97 26.94 14.44 27.61 14.44L30 14.44C30.66 14.44 31.2 14.97 31.2 15.64C31.2 16.3 30.66 16.83 30 16.83C33.18 16.83 36.1 17.97 38.38 19.85L38.38 12.04L0 12.04L0 34.79C0 35.45 0.53 35.98 1.19 35.98L18.29 35.98C17.36 34.19 16.83 32.16 16.83 30C16.83 28.68 17.07 27.43 17.43 26.23C17.08 26.02 16.83 25.65 16.83 25.21C16.83 24.55 17.37 24.01 18.03 24.01ZM18.03 14.44L20.42 14.44C21.09 14.44 21.62 14.97 21.62 15.64C21.62 16.3 21.09 16.83 20.42 16.83L18.03 16.83C17.37 16.83 16.83 16.3 16.83 15.64C16.83 14.97 17.37 14.44 18.03 14.44ZM10.85 31.2L8.45 31.2C7.79 31.2 7.26 30.66 7.26 30C7.26 29.34 7.79 28.8 8.45 28.8L10.85 28.8C11.51 28.8 12.04 29.34 12.04 30C12.04 30.66 11.51 31.2 10.85 31.2ZM10.85 26.41L8.45 26.41C7.79 26.41 7.26 25.87 7.26 25.21C7.26 24.55 7.79 24.01 8.45 24.01L10.85 24.01C11.51 24.01 12.04 24.55 12.04 25.21C12.04 25.87 11.51 26.41 10.85 26.41ZM10.85 21.62L8.45 21.62C7.79 21.62 7.26 21.09 7.26 20.42C7.26 19.76 7.79 19.23 8.45 19.23L10.85 19.23C11.51 19.23 12.04 19.76 12.04 20.42C12.04 21.09 11.51 21.62 10.85 21.62ZM10.85 16.83L8.45 16.83C7.79 16.83 7.26 16.3 7.26 15.64C7.26 14.97 7.79 14.44 8.45 14.44L10.85 14.44C11.51 14.44 12.04 14.97 12.04 15.64C12.04 16.3 11.51 16.83 10.85 16.83Z" fill="#FFFFFF" fill-opacity="1.000000" fill-rule="nonzero"/>
		<path id="Vector" d="M9.65 1.19C9.65 0.52 9.12 0 8.45 0C7.78 0 7.26 0.52 7.26 1.19L7.26 2.47L9.65 2.47L9.65 1.19Z" fill="#FFFFFF" fill-opacity="1.000000" fill-rule="nonzero"/>
		<path id="Vector" d="M16.83 1.19C16.83 0.52 16.31 0 15.64 0C14.97 0 14.44 0.52 14.44 1.19L14.44 2.47L16.83 2.47L16.83 1.19Z" fill="#FFFFFF" fill-opacity="1.000000" fill-rule="nonzero"/>
		<path id="Vector" d="M24.01 1.19C24.01 0.52 23.49 0 22.82 0C22.15 0 21.62 0.52 21.62 1.19L21.62 2.47L24.01 2.47L24.01 1.19Z" fill="#FFFFFF" fill-opacity="1.000000" fill-rule="nonzero"/>
		<path id="Vector" d="M31.2 1.19C31.2 0.52 30.67 0 30 0C29.33 0 28.8 0.52 28.8 1.19L28.8 2.47L31.2 2.47L31.2 1.19Z" fill="#FFFFFF" fill-opacity="1.000000" fill-rule="nonzero"/>
	</g>
</svg>
