<svg width="37.000000" height="41.000000" viewBox="0 0 37 41" fill="none" xmlns="http://www.w3.org/2000/svg" xmlns:xlink="http://www.w3.org/1999/xlink">
	<desc>
			Created with Pixso.
	</desc>
	<defs/>
	<path id="Vector" d="M18.14 7.25C16.06 7.25 14.36 8.94 14.36 11.02C14.36 13.11 16.06 14.8 18.14 14.8C20.22 14.8 21.92 13.11 21.92 11.02C21.92 8.94 20.22 7.25 18.14 7.25Z" fill="#FFFFFF" fill-opacity="1.000000" fill-rule="nonzero"/>
	<path id="Vector" d="M30.45 30.37C28.53 29.82 26.25 29.42 23.78 29.17C21.37 32.8 19.3 35.44 19.09 35.7C18.86 35.98 18.51 36.15 18.14 36.15C17.77 36.15 17.42 35.98 17.19 35.7C16.99 35.44 14.91 32.8 12.51 29.17C10.03 29.42 7.75 29.82 5.83 30.37C1.96 31.47 0 33.01 0 34.94C0 36.87 1.96 38.41 5.83 39.52C9.14 40.46 13.51 40.98 18.14 40.98C22.77 40.98 27.15 40.46 30.45 39.52C34.32 38.41 36.29 36.87 36.29 34.94C36.29 33.01 34.32 31.47 30.45 30.37Z" fill="#FFFFFF" fill-opacity="1.000000" fill-rule="nonzero"/>
	<path id="Vector" d="M18.14 0C12.06 0 7.11 4.94 7.11 11.02C7.11 14.27 9.17 19.28 13.05 25.53C15.02 28.7 17.01 31.44 18.14 32.95C19.28 31.43 21.27 28.68 23.25 25.51C27.12 19.27 29.17 14.26 29.17 11.02C29.17 4.94 24.22 0 18.14 0ZM18.14 17.22C14.72 17.22 11.94 14.44 11.94 11.02C11.94 7.6 14.72 4.82 18.14 4.82C21.56 4.82 24.34 7.6 24.34 11.02C24.34 14.44 21.56 17.22 18.14 17.22Z" fill="#FF3811" fill-opacity="1.000000" fill-rule="nonzero"/>
</svg>
