<svg width="47.000000" height="41.000000" viewBox="0 0 47 41" fill="none" xmlns="http://www.w3.org/2000/svg" xmlns:xlink="http://www.w3.org/1999/xlink">
	<desc>
			Created with Pixso.
	</desc>
	<defs/>
	<path id="Vector" d="M36.74 0L25.88 0C20.64 0 16.38 4.26 16.38 9.5C16.38 14.28 19.93 18.25 24.52 18.91L24.52 23.08C24.52 23.63 24.86 24.12 25.36 24.33C25.86 24.54 26.45 24.43 26.84 24.04L31.88 19L36.74 19C41.98 19 46.34 14.74 46.34 9.5C46.34 4.26 41.98 0 36.74 0ZM25.88 10.86C25.13 10.86 24.52 10.25 24.52 9.5C24.52 8.75 25.13 8.14 25.88 8.14C26.63 8.14 27.24 8.75 27.24 9.5C27.24 10.25 26.63 10.86 25.88 10.86ZM31.31 10.86C30.56 10.86 29.96 10.25 29.96 9.5C29.96 8.75 30.56 8.14 31.31 8.14C32.06 8.14 32.67 8.75 32.67 9.5C32.67 10.25 32.06 10.86 31.31 10.86ZM36.74 10.86C35.99 10.86 35.39 10.25 35.39 9.5C35.39 8.75 35.99 8.14 36.74 8.14C37.49 8.14 38.1 8.75 38.1 9.5C38.1 10.25 37.49 10.86 36.74 10.86Z" fill="#FF3811" fill-opacity="1.000000" fill-rule="nonzero"/>
	<path id="Vector" d="M30.5 40.73C32.74 40.73 34.57 38.9 34.57 36.65L34.57 31.22C34.57 30.64 34.2 30.12 33.64 29.94L25.52 27.22C25.12 27.09 24.68 27.15 24.33 27.38L20.88 29.68C17.22 27.94 12.88 23.59 11.13 19.93L13.43 16.48C13.67 16.13 13.73 15.69 13.59 15.3L10.88 7.17C10.69 6.61 10.17 6.24 9.59 6.24L4.07 6.24C1.82 6.24 0 8.05 0 10.29C0 25.94 14.86 40.73 30.5 40.73Z" fill="#FFFFFF" fill-opacity="1.000000" fill-rule="nonzero"/>
</svg>
