<?xml version="1.0" encoding="UTF-8"?>
<svg version="1.1" xmlns="http://www.w3.org/2000/svg" width="156" height="98">
<path d="M0 0 C3.5625 0.1875 3.5625 0.1875 5.5625 2.1875 C6.02097689 4.54780696 6.38393131 6.9273174 6.6875 9.3125 C6.85507813 10.59382813 7.02265625 11.87515625 7.1953125 13.1953125 C7.31648438 14.18273438 7.43765625 15.17015625 7.5625 16.1875 C8.73039062 16.38279297 8.73039062 16.38279297 9.921875 16.58203125 C13.30780292 17.35839046 14.4765084 18.4310111 16.5625 21.1875 C17.25 23.75 17.25 23.75 17.5625 27.1875 C17.71525391 28.57195313 17.71525391 28.57195313 17.87109375 29.984375 C18.46842792 35.67748585 18.46842792 35.67748585 18.5625 38.1875 C17.5625 39.1875 17.5625 39.1875 14.625 39.375 C11.5625 39.1875 11.5625 39.1875 9.5625 37.1875 C8.5725 38.1775 8.5725 38.1775 7.5625 39.1875 C5.35546875 39.75 5.35546875 39.75 2.75 40.1875 C-0.13232189 40.70367512 -2.43685039 41.18721296 -5.125 42.375 C-8.61415491 43.60091929 -10.92384621 43.2285826 -14.4375 42.1875 C-16.375 39.125 -16.375 39.125 -17.4375 36.1875 C-17.375625 37.445625 -17.31375 38.70375 -17.25 40 C-17.26378737 43.89493136 -17.26378737 43.89493136 -18.625 46.1875 C-21.02795985 47.51327095 -22.72624559 47.39084408 -25.4375 47.1875 C-28.5998599 46.89341415 -28.5998599 46.89341415 -31.1875 49.1875 C-34.96577377 51.51259155 -37.08964886 51.44325595 -41.4375 51.1875 C-41.7675 51.5175 -42.0975 51.8475 -42.4375 52.1875 C-46.15974599 52.48136153 -47.21536243 52.33559171 -50.4375 50.1875 C-50.56125 50.80625 -50.685 51.425 -50.8125 52.0625 C-51.4375 54.1875 -51.4375 54.1875 -53.4375 56.1875 C-55.10355828 56.2325286 -56.77128384 56.22624921 -58.4375 56.1875 C-59.19160156 56.34476563 -59.94570313 56.50203125 -60.72265625 56.6640625 C-63.70527353 57.23912828 -66.52630384 57.42770962 -69.5625 57.5 C-71.11324219 57.55607422 -71.11324219 57.55607422 -72.6953125 57.61328125 C-75.4375 57.1875 -75.4375 57.1875 -77.26171875 55.328125 C-80.29505849 49.80563271 -80.03103119 42.34412859 -79.4375 36.1875 C-77.4375 34.1875 -77.4375 34.1875 -74.8125 34.0625 C-74.02875 34.10375 -73.245 34.145 -72.4375 34.1875 C-73.56201727 31.2155615 -74.66043791 28.85309313 -76.4375 26.1875 C-76.8125 23.75 -76.8125 23.75 -76.4375 21.1875 C-74.56722515 18.94317018 -73.04863596 17.49306798 -70.4375 16.1875 C-68.7283168 16.21915154 -67.01971095 16.28702395 -65.3125 16.375 C-60.36032334 16.44630097 -57.39051732 15.54790518 -53.1640625 13.078125 C-50.86904601 11.89427034 -48.97228476 11.8706519 -46.4375 12.1875 C-46.1075 11.1975 -45.7775 10.2075 -45.4375 9.1875 C-43.109375 8.203125 -43.109375 8.203125 -40.1875 7.4375 C-39.23359375 7.17453125 -38.2796875 6.9115625 -37.296875 6.640625 C-34.4375 6.1875 -34.4375 6.1875 -31.734375 6.734375 C-30.97640625 6.88390625 -30.2184375 7.0334375 -29.4375 7.1875 C-28.6125 6.5275 -27.7875 5.8675 -26.9375 5.1875 C-24.4375 3.1875 -24.4375 3.1875 -21.8125 3.25 C-19.3488271 4.22250246 -18.11018372 5.16267234 -16.4375 7.1875 C-16.128125 6.383125 -15.81875 5.57875 -15.5 4.75 C-14.4375 2.1875 -14.4375 2.1875 -13.4375 1.1875 C-11.10914772 1.11585839 -8.7972039 1.1910518 -6.46875 1.25 C-3.57151991 1.16085446 -3.36333224 0.18345449 0 0 Z " fill="#4B4646" transform="translate(118.4375,23.8125)"/>
<path d="M0 0 C2.02921669 0.27401018 2.02921669 0.27401018 4.23046875 0.1953125 C5.03291016 0.18886719 5.83535156 0.18242187 6.66210938 0.17578125 C7.91217773 0.15064453 7.91217773 0.15064453 9.1875 0.125 C10.03248047 0.11597656 10.87746094 0.10695313 11.74804688 0.09765625 C13.83215243 0.07410703 15.91611217 0.03823647 18 0 C19.07421875 2.359375 19.07421875 2.359375 20 5 C18.3358761 8.15307687 17.42447685 8.85850772 14 10 C11.19927333 10.22776994 8.39999859 10.3801076 5.59375 10.5234375 C2.6605443 11.06236987 1.91401268 11.81755871 0 14 C-0.66 14 -1.32 14 -2 14 C-1.505 15.19625 -1.01 16.3925 -0.5 17.625 C1.75146237 24.43324985 2.41317855 32.34529326 0.30859375 39.27734375 C-2.47173372 44.59370214 -6.85350216 48.16525084 -12.375 50.3125 C-13.674375 50.6528125 -13.674375 50.6528125 -15 51 C-10.23069329 56.53854973 -4.22371099 59.86538507 3.12890625 60.671875 C4.60580603 60.7312799 6.08441575 60.75536968 7.5625 60.75 C8.79891235 60.75169189 8.79891235 60.75169189 10.06030273 60.75341797 C21.52699402 60.37685368 32.62238314 56.94027779 43.62890625 53.9453125 C53.32428681 51.33232918 62.38525516 49.65784802 72.4375 49.75 C73.30826172 49.74226563 74.17902344 49.73453125 75.07617188 49.7265625 C75.91599609 49.72914062 76.75582031 49.73171875 77.62109375 49.734375 C78.74149048 49.73775879 78.74149048 49.73775879 79.88452148 49.74121094 C82.27785957 50.0339909 83.91714454 50.81349996 86 52 C86.125 54.875 86.125 54.875 86 58 C85.01 58.99 85.01 58.99 84 60 C81.96875 59.9765625 81.96875 59.9765625 79.5 59.625 C64.15030401 57.83710927 50.1409466 60.70273122 35.44580078 65.07519531 C20.58238892 69.47416273 2.6996507 74.73244287 -12.12890625 67.19921875 C-18.20851637 63.30268366 -23.12025455 58.95885451 -24.75 51.625 C-24.87375 50.325625 -24.87375 50.325625 -25 49 C-26.1446875 48.9071875 -26.1446875 48.9071875 -27.3125 48.8125 C-30 48 -30 48 -31.75 45.78515625 C-33.30646777 42.31715149 -32.89380464 41.16945068 -31.6875 37.625 C-30.27885171 32.7099761 -29.65304796 28.09974158 -29.625 23 C-29.61726563 21.7625 -29.60953125 20.525 -29.6015625 19.25 C-30.02794573 15.7720505 -30.74668843 14.576864 -33 12 C-33.75 9.125 -33.75 9.125 -33 6 C-25.1318341 -1.3297263 -9.58304913 -6.38869942 0 0 Z M-13 16 C-12.54300722 21.02692063 -10.00758252 24.14896261 -7 28 C-10.46941546 27.54177532 -13.67395049 27.10868317 -17 26 C-17.09688221 31.44693314 -17.12862175 36.63904667 -16 42 C-12.9259539 43.35258028 -11.67428952 42.89891744 -8.375 41.875 C-4.9574409 40.32614436 -4.9574409 40.32614436 -3.5625 37.75 C-2.30312614 31.59306111 -2.80978031 27.266163 -5.78125 21.80078125 C-7.48195937 19.28787414 -9.46847648 17.64206931 -12 16 C-12.33 16 -12.66 16 -13 16 Z " fill="#4F4D49" transform="translate(33,28)"/>
<path d="M0 0 C0.825 0.103125 1.65 0.20625 2.5 0.3125 C4.92130331 3.94445496 4.71022785 5.69599348 4.625 10 C4.60695313 11.17949219 4.58890625 12.35898437 4.5703125 13.57421875 C4.54710938 14.47785156 4.52390625 15.38148437 4.5 16.3125 C-0.20812854 18.22120076 -4.37161666 19.47855354 -9.4453125 20.0546875 C-11.20352684 20.27529995 -12.94861106 20.59654138 -14.6875 20.9375 C-17.59410873 21.32504783 -19.68275976 21.05824006 -22.5 20.3125 C-22.891875 21.116875 -23.28375 21.92125 -23.6875 22.75 C-25.5 25.3125 -25.5 25.3125 -27.875 26.0625 C-29.174375 26.18625 -29.174375 26.18625 -30.5 26.3125 C-31.263125 26.498125 -32.02625 26.68375 -32.8125 26.875 C-36.43915033 27.46538494 -39.82453839 27.43501539 -43.5 27.3125 C-45.08272601 25.72977399 -44.84735747 23.93215997 -45.0625 21.75 C-45.14628906 20.92371094 -45.23007813 20.09742187 -45.31640625 19.24609375 C-45.37699219 18.60800781 -45.43757813 17.96992187 -45.5 17.3125 C-46.65687129 19.141128 -46.65687129 19.141128 -47.5 21.3125 C-46.51712992 23.32097365 -45.51622658 25.32069591 -44.5 27.3125 C-44.8125 30.1875 -44.8125 30.1875 -45.5 32.3125 C-47.48 32.8075 -47.48 32.8075 -49.5 33.3125 C-50.33878455 32.02436658 -51.17086783 30.73186744 -52 29.4375 C-52.69609375 28.35855469 -52.69609375 28.35855469 -53.40625 27.2578125 C-54.5 25.3125 -54.5 25.3125 -54.5 23.3125 C-55.49 23.3125 -56.48 23.3125 -57.5 23.3125 C-57.17 23.9725 -56.84 24.6325 -56.5 25.3125 C-56.05856839 29.28538453 -56.17969987 30.85206856 -58.5 34.1875 C-59.16 34.88875 -59.82 35.59 -60.5 36.3125 C-60.005 36.8075 -60.005 36.8075 -59.5 37.3125 C-59.26321284 40.00485776 -59.07801975 42.67748156 -58.9375 45.375 C-58.89431641 46.13361328 -58.85113281 46.89222656 -58.80664062 47.67382812 C-58.70026367 49.55315438 -58.59960066 51.43280244 -58.5 53.3125 C-62.26568658 54.17561485 -65.82579583 54.50493422 -69.6875 54.5625 C-71.25564453 54.60117188 -71.25564453 54.60117188 -72.85546875 54.640625 C-73.72816406 54.53234375 -74.60085937 54.4240625 -75.5 54.3125 C-78.02775351 50.52086973 -77.72443035 47.50375969 -77.625 43.125 C-77.61597656 42.37541016 -77.60695312 41.62582031 -77.59765625 40.85351562 C-77.57412578 39.00637346 -77.53825561 37.15939588 -77.5 35.3125 C-71.875 35.0625 -71.875 35.0625 -68.5 37.3125 C-68.17 36.6525 -67.84 35.9925 -67.5 35.3125 C-68.49 34.9825 -69.48 34.6525 -70.5 34.3125 C-71.56902939 32.00997517 -72.57175817 29.6752974 -73.5 27.3125 C-73.83 26.9825 -74.16 26.6525 -74.5 26.3125 C-74.875 23.5 -74.875 23.5 -74.5 20.3125 C-71.86390698 17.36627839 -70.31192395 16.40993087 -66.375 15.9375 C-63.5 16.3125 -63.5 16.3125 -60.5 18.3125 C-59.82453125 17.86777344 -59.1490625 17.42304687 -58.453125 16.96484375 C-57.56109375 16.39894531 -56.6690625 15.83304688 -55.75 15.25 C-54.86828125 14.68152344 -53.9865625 14.11304688 -53.078125 13.52734375 C-50.5 12.3125 -50.5 12.3125 -48.171875 12.62890625 C-47.34429687 12.96728516 -47.34429687 12.96728516 -46.5 13.3125 C-45.63375 12.1059375 -45.63375 12.1059375 -44.75 10.875 C-41.87603617 7.60187453 -41.87603617 7.60187453 -38.5 7.3125 C-36.16699067 7.27361651 -33.83290199 7.2676365 -31.5 7.3125 C-30.5 12.0625 -30.5 12.0625 -30.5 14.3125 C-30.18197057 15.98215451 -29.85015049 17.64928518 -29.5 19.3125 C-29.31824219 18.06533203 -29.31824219 18.06533203 -29.1328125 16.79296875 C-28.96523437 15.70628906 -28.79765625 14.61960937 -28.625 13.5 C-28.46257812 12.42105469 -28.30015625 11.34210937 -28.1328125 10.23046875 C-27.5 7.3125 -27.5 7.3125 -25.5 4.3125 C-23.08203125 3.875 -23.08203125 3.875 -20.5 4.3125 C-18.69921875 6.0625 -18.69921875 6.0625 -17.1875 8.3125 C-16.67574219 9.055 -16.16398437 9.7975 -15.63671875 10.5625 C-15.26160156 11.14 -14.88648438 11.7175 -14.5 12.3125 C-14.55220703 11.37277344 -14.55220703 11.37277344 -14.60546875 10.4140625 C-14.63253906 9.59679688 -14.65960938 8.77953125 -14.6875 7.9375 C-14.73970703 6.71933594 -14.73970703 6.71933594 -14.79296875 5.4765625 C-14.69628906 4.76242188 -14.59960938 4.04828125 -14.5 3.3125 C-11.5 1.3125 -11.5 1.3125 -8.9375 1.6875 C-8.133125 1.89375 -7.32875 2.1 -6.5 2.3125 C-5.84 2.3125 -5.18 2.3125 -4.5 2.3125 C-2.5 0.3125 -2.5 0.3125 0 0 Z " fill="#D9E0C6" transform="translate(118.5,24.6875)"/>
<path d="M0 0 C3.5625 0.1875 3.5625 0.1875 5.5625 2.1875 C6.02097689 4.54780696 6.38393131 6.9273174 6.6875 9.3125 C6.93886719 11.23449219 6.93886719 11.23449219 7.1953125 13.1953125 C7.31648438 14.18273438 7.43765625 15.17015625 7.5625 16.1875 C8.73039062 16.38279297 8.73039062 16.38279297 9.921875 16.58203125 C13.30780292 17.35839046 14.4765084 18.4310111 16.5625 21.1875 C17.25 23.75 17.25 23.75 17.5625 27.1875 C17.71525391 28.57195313 17.71525391 28.57195313 17.87109375 29.984375 C18.46842792 35.67748585 18.46842792 35.67748585 18.5625 38.1875 C17.5625 39.1875 17.5625 39.1875 14.625 39.375 C11.5625 39.1875 11.5625 39.1875 9.5625 37.1875 C8.9025 37.8475 8.2425 38.5075 7.5625 39.1875 C5.35546875 39.75 5.35546875 39.75 2.75 40.1875 C-0.13232189 40.70367512 -2.43685039 41.18721296 -5.125 42.375 C-8.61415491 43.60091929 -10.92384621 43.2285826 -14.4375 42.1875 C-16.375 39.125 -16.375 39.125 -17.4375 36.1875 C-17.5921875 37.8271875 -17.5921875 37.8271875 -17.75 39.5 C-18.4375 43.1875 -18.4375 43.1875 -19.75 45.1875 C-21.4375 46.1875 -21.4375 46.1875 -23.5625 45.9375 C-25.4375 45.1875 -25.4375 45.1875 -26.4375 44.1875 C-26.50955511 42.50141034 -26.52136068 40.81249341 -26.5 39.125 C-26.49097656 38.20589844 -26.48195313 37.28679688 -26.47265625 36.33984375 C-26.45525391 35.27443359 -26.45525391 35.27443359 -26.4375 34.1875 C-28.0875 33.8575 -29.7375 33.5275 -31.4375 33.1875 C-31.4375 31.5375 -31.4375 29.8875 -31.4375 28.1875 C-29.4575 27.8575 -27.4775 27.5275 -25.4375 27.1875 C-24.7775 25.2075 -24.1175 23.2275 -23.4375 21.1875 C-20.64904227 20.47046801 -18.77424145 20.11173317 -15.9375 20.75 C-12.79100146 21.30063724 -11.3675784 20.37348411 -8.4375 19.1875 C-6.10416667 19.1875 -3.77083333 19.1875 -1.4375 19.1875 C-0.7775 18.5275 -0.1175 17.8675 0.5625 17.1875 C1.8825 17.1875 3.2025 17.1875 4.5625 17.1875 C4.42180804 15.06215341 4.27479079 12.93722471 4.125 10.8125 C4.04378906 9.62914062 3.96257812 8.44578125 3.87890625 7.2265625 C3.75165064 4.27231099 3.75165064 4.27231099 2.5625 2.1875 C0.18875139 1.85324265 0.18875139 1.85324265 -2.4375 2.1875 C-4.28065671 4.0879467 -4.28065671 4.0879467 -5.4375 6.1875 C-6.0975 5.1975 -6.7575 4.2075 -7.4375 3.1875 C-9.48753955 1.99517387 -9.48753955 1.99517387 -11.4375 1.1875 C-10.303125 1.208125 -9.16875 1.22875 -8 1.25 C-3.9890764 1.17963292 -3.95993869 0.21599666 0 0 Z " fill="#494443" transform="translate(118.4375,23.8125)"/>
<path d="M0 0 C0.33 0 0.66 0 1 0 C1.33 2.31 1.66 4.62 2 7 C2.66 5.68 3.32 4.36 4 3 C5.32 3 6.64 3 8 3 C8 3.66 8 4.32 8 5 C8.99 5.33 9.98 5.66 11 6 C12.38576923 7.62332967 13.72641268 9.28724465 15 11 C13.125 10.6875 13.125 10.6875 11 10 C10.34 9.01 9.68 8.02 9 7 C9.33 13.93 9.66 20.86 10 28 C16.14428641 27.31788362 16.14428641 27.31788362 22 26 C22 26.99 22 27.98 22 29 C17.03006806 31.43425238 13.65394631 32.34615998 8 32 C11.24260563 38.61491548 14.82911141 42.30632992 21.703125 45.09765625 C37.73489503 49.48549852 54.14381585 44.15588221 69.62890625 39.9453125 C79.32428681 37.33232918 88.38525516 35.65784802 98.4375 35.75 C99.30826172 35.74226563 100.17902344 35.73453125 101.07617188 35.7265625 C101.91599609 35.72914062 102.75582031 35.73171875 103.62109375 35.734375 C104.74149048 35.73775879 104.74149048 35.73775879 105.88452148 35.74121094 C108.27785957 36.0339909 109.91714454 36.81349996 112 38 C111.67 39.32 111.34 40.64 111 42 C110.351521 41.98428955 109.70304199 41.9685791 109.03491211 41.95239258 C96.26703144 41.68448751 84.40386749 41.67728408 72 45 C70.12634766 45.48726562 70.12634766 45.48726562 68.21484375 45.984375 C63.42040569 47.2524868 58.62842888 48.52021322 53.87109375 49.921875 C47.14644077 51.74259841 40.68496624 52.33291752 33.75 52.4375 C32.50827026 52.47085449 32.50827026 52.47085449 31.24145508 52.50488281 C22.15925663 52.47222935 15.32040505 48.97825437 8.73046875 42.875 C5.95445526 39.86712985 3 36.24886254 3 32 C2.38125 31.87625 1.7625 31.7525 1.125 31.625 C-1 31 -1 31 -3 29 C-3.01171875 26.72265625 -3.01171875 26.72265625 -2.6875 24.0625 C-2.58824219 23.18722656 -2.48898438 22.31195313 -2.38671875 21.41015625 C-2 19 -2 19 -1 16 C-0.77202438 13.26710707 -0.58331813 10.54957796 -0.4375 7.8125 C-0.39431641 7.06291016 -0.35113281 6.31332031 -0.30664062 5.54101562 C-0.20077315 3.69421625 -0.0999024 1.84713166 0 0 Z " fill="#4E4A4A" transform="translate(7,42)"/>
<path d="M0 0 C0.78375 0.28875 1.5675 0.5775 2.375 0.875 C1.88434359 3.16472992 1.43591951 4.78362073 0.125 6.75 C-0.1225 7.45125 -0.37 8.1525 -0.625 8.875 C0.35787008 10.88347365 1.35877342 12.88319591 2.375 14.875 C2.0625 17.75 2.0625 17.75 1.375 19.875 C0.055 20.205 -1.265 20.535 -2.625 20.875 C-3.46378455 19.58686658 -4.29586783 18.29436744 -5.125 17 C-5.82109375 15.92105469 -5.82109375 15.92105469 -6.53125 14.8203125 C-7.625 12.875 -7.625 12.875 -7.625 10.875 C-8.615 10.875 -9.605 10.875 -10.625 10.875 C-10.295 11.535 -9.965 12.195 -9.625 12.875 C-9.18356839 16.84788453 -9.30469987 18.41456856 -11.625 21.75 C-12.285 22.45125 -12.945 23.1525 -13.625 23.875 C-13.295 24.205 -12.965 24.535 -12.625 24.875 C-12.38821284 27.56735776 -12.20301975 30.23998156 -12.0625 32.9375 C-12.01931641 33.69611328 -11.97613281 34.45472656 -11.93164062 35.23632812 C-11.82526367 37.11565438 -11.72460066 38.99530244 -11.625 40.875 C-15.39068658 41.73811485 -18.95079583 42.06743422 -22.8125 42.125 C-24.38064453 42.16367188 -24.38064453 42.16367188 -25.98046875 42.203125 C-26.85316406 42.09484375 -27.72585937 41.9865625 -28.625 41.875 C-31.15275351 38.08336973 -30.84943035 35.06625969 -30.75 30.6875 C-30.74097656 29.93791016 -30.73195312 29.18832031 -30.72265625 28.41601562 C-30.69912578 26.56887346 -30.66325561 24.72189588 -30.625 22.875 C-25 22.625 -25 22.625 -21.625 24.875 C-21.295 24.215 -20.965 23.555 -20.625 22.875 C-21.615 22.545 -22.605 22.215 -23.625 21.875 C-24.69402939 19.57247517 -25.69675817 17.2377974 -26.625 14.875 C-26.955 14.545 -27.285 14.215 -27.625 13.875 C-28 11.0625 -28 11.0625 -27.625 7.875 C-24.98890698 4.92877839 -23.43692395 3.97243087 -19.5 3.5 C-16.625 3.875 -16.625 3.875 -13.625 5.875 C-12.97273438 5.43027344 -12.32046875 4.98554687 -11.6484375 4.52734375 C-4.42088336 -0.15244425 -4.42088336 -0.15244425 0 0 Z " fill="#D9DDCC" transform="translate(71.625,37.125)"/>
<path d="M0 0 C1.8671875 1 1.8671875 1 3.5625 2.1875 C6.65656486 4.28542923 6.65656486 4.28542923 8.9296875 3.59765625 C10.28494551 3.02549479 11.63263757 2.43512002 12.97265625 1.828125 C17.41493709 0.01355171 21.17331353 0.34541404 25.55078125 1.9140625 C32.33571288 5.03010517 37.17563315 8.88104795 40 16 C39.94921875 18.62109375 39.94921875 18.62109375 39.6875 21.4375 C39.49077625 25.4342099 39.49077625 25.4342099 41.48046875 28.6875 C43.33401571 29.96157148 43.33401571 29.96157148 45.2734375 30.90234375 C47.51704771 32.32871132 48.08683634 33.51886752 49 36 C49.64441141 40.1106665 49.93635807 44.23171041 47.94921875 47.984375 C46.625 49.625 46.625 49.625 44 52 C43.34 52 42.68 52 42 52 C42.05220703 52.99580078 42.05220703 52.99580078 42.10546875 54.01171875 C42.38147235 63.0146933 42.38147235 63.0146933 39 67 C38.319375 67.474375 37.63875 67.94875 36.9375 68.4375 C34.28972074 70.57280586 34.02498677 72.79691634 33 76 C30.09743412 80.62260493 27.18163551 82.35914876 22 84 C19.27501764 84.21952572 16.74149469 84.14428919 14 84 C13.67 83.01 13.34 82.02 13 81 C14.794375 81.0928125 14.794375 81.0928125 16.625 81.1875 C20.75445669 81.2094652 23.3972701 80.0587028 27 78 C27.66 78 28.32 78 29 78 C30.20628008 75.66785852 31.1654738 73.50357861 32 71 C30.9275 71.04125 29.855 71.0825 28.75 71.125 C25.34252515 71.0114175 23.79260369 70.78726636 21 69 C21 68.34 21 67.68 21 67 C21.66386719 67.10699219 22.32773438 67.21398437 23.01171875 67.32421875 C28.70942398 68.16371708 28.70942398 68.16371708 34.125 66.5625 C34.74375 66.046875 35.3625 65.53125 36 65 C35.67 64.01 35.34 63.02 35 62 C34.87218214 59.32605036 34.95608129 56.67904143 35 54 C33.68 53.34 32.36 52.68 31 52 C31.495 51.01 31.495 51.01 32 50 C33.216875 50.2475 34.43375 50.495 35.6875 50.75 C39.16844922 51.20054839 39.78285829 51.13398105 42.9375 49.1875 C46.42858881 45.48483005 46.09253614 42.99695161 46 38 C44.515 37.505 44.515 37.505 43 37 C42.525625 36.505 42.05125 36.01 41.5625 35.5 C39.65905694 33.67269467 38.64896189 33.08027157 36 33 C35.401875 33.61875 34.80375 34.2375 34.1875 34.875 C31.28271809 37.69678814 28.95001521 37.69615268 25 38 C25 37.34 25 36.68 25 36 C26.0725 35.62875 27.145 35.2575 28.25 34.875 C32.33884225 33.07524591 34.11429005 31.14856188 36 27 C36.92416692 21.79502214 36.58310006 17.31611678 34.0625 12.625 C30.9455523 8.27536112 27.10035782 6.35838676 22 5 C15.62018627 3.97404105 10.44130895 5.62668348 5.1875 9.25 C3.35982143 11.94342105 2.7682705 14.86782027 2 18 C1.34 18 0.68 18 0 18 C1 10.57142857 1 10.57142857 2 7 C-0.31 6.34 -2.62 5.68 -5 5 C-5 4.34 -5 3.68 -5 3 C-8.04765553 3.85334283 -8.04765553 3.85334283 -11 6 C-12.12755372 8.94416805 -12.62039672 11.87809026 -13 15 C-15 14 -15 14 -16 11 C-19.198543 9.4007285 -22.52101629 9.63872092 -26 10 C-29.42734424 11.3709377 -30.74682039 12.65698246 -32.9375 15.625 C-34.67071902 21.13051923 -32.77279346 25.68161962 -31 31 C-31.94875 30.835 -32.8975 30.67 -33.875 30.5 C-40.59110305 29.5463951 -47.35360511 29.60075897 -54 31 C-53.505 29.515 -53.505 29.515 -53 28 C-49.43954823 26.81318274 -46.56191663 26.90310168 -42.8125 26.9375 C-41.54019531 26.94652344 -40.26789063 26.95554687 -38.95703125 26.96484375 C-37.49330078 26.98224609 -37.49330078 26.98224609 -36 27 C-36.33 26.01 -36.66 25.02 -37 24 C-37.3823833 19.33492377 -37.47936179 16.95872359 -35.375 12.75 C-32.15979718 9.02713357 -29.5621252 6.24438733 -24.4609375 5.7578125 C-21.96053183 5.75060672 -19.49456595 5.83848134 -17 6 C-16.34 6 -15.68 6 -15 6 C-13.64613064 4.34997172 -12.31321858 2.6825613 -11 1 C-7.53907727 -0.73046136 -3.78395751 -0.49953234 0 0 Z M38 56 C38 57.65 38 59.3 38 61 C38.33 61 38.66 61 39 61 C39 59.35 39 57.7 39 56 C38.67 56 38.34 56 38 56 Z " fill="#3DA3DC" transform="translate(107,0)"/>
<path d="M0 0 C0.66 0.33 1.32 0.66 2 1 C2.144375 1.78375 2.28875 2.5675 2.4375 3.375 C2.71398762 6.03817523 2.71398762 6.03817523 4.515625 7.1796875 C6.85705157 10.05101588 6.3931412 13.21468964 6.3125 16.75 C6.31572266 17.4409375 6.31894531 18.131875 6.32226562 18.84375 C6.27378646 23.53300762 5.42281486 27.49993438 4 32 C3.41471223 35.17018409 3.41471223 35.17018409 4 38 C5.65848177 39.01351664 7.32665961 40.01120795 9 41 C9.90625 42.67578125 9.90625 42.67578125 10.75 44.6875 C13.71699613 51.17182219 19.15577961 55.94727196 25.69140625 58.70703125 C30.35600355 60.33141763 34.78549175 60.45711702 39.6875 60.375 C40.57397217 60.36484863 41.46044434 60.35469727 42.3737793 60.34423828 C49.59640861 60.17454168 56.05660423 58.99852238 63 57 C65.91552538 56.22011161 68.83453615 55.45446174 71.75463867 54.69189453 C73.79433013 54.15791381 75.83234845 53.61748959 77.8684082 53.06982422 C87.38510445 50.53602709 96.10629934 49.86484189 105.9375 49.9375 C107.09830078 49.94201172 108.25910156 49.94652344 109.45507812 49.95117188 C112.30343934 49.96289353 115.15169222 49.9793024 118 50 C117.67 51.32 117.34 52.64 117 54 C113.14771542 55.38682245 109.98819876 54.57893208 106 54 C92.89483642 52.87240466 79.87857306 56.37588868 67.44580078 60.07519531 C52.58238892 64.47416273 34.6996507 69.73244287 19.87109375 62.19921875 C13.79148363 58.30268366 8.87974545 53.95885451 7.25 46.625 C7.12625 45.325625 7.12625 45.325625 7 44 C5.8553125 43.9071875 5.8553125 43.9071875 4.6875 43.8125 C2 43 2 43 0.25 40.78515625 C-1.30646777 37.31715149 -0.89380464 36.16945068 0.3125 32.625 C1.72114829 27.7099761 2.34695204 23.09974158 2.375 18 C2.38273438 16.7625 2.39046875 15.525 2.3984375 14.25 C1.97119102 10.76500912 1.21092458 9.61028007 -1 7 C-1.25 3.8125 -1.25 3.8125 -1 1 C-0.67 0.67 -0.34 0.34 0 0 Z " fill="#3EA1D9" transform="translate(1,33)"/>
<path d="M0 0 C1.75 2.3125 1.75 2.3125 3 5 C3.86625 5.680625 3.86625 5.680625 4.75 6.375 C6 8 6 8 6 11.4375 C5 15 5 15 2.875 17.4375 C-0.70378189 19.38249016 -2.97964268 19.44670637 -7 19 C-7.99 18.34 -8.98 17.68 -10 17 C-9.67 17.99 -9.34 18.98 -9 20 C-11.97 19.67 -14.94 19.34 -18 19 C-18.33 20.32 -18.66 21.64 -19 23 C-20.65 23.33 -22.3 23.66 -24 24 C-24.08086376 21.06195004 -24.1404283 18.12611925 -24.1875 15.1875 C-24.21263672 14.35412109 -24.23777344 13.52074219 -24.26367188 12.66210938 C-24.27333984 11.85966797 -24.28300781 11.05722656 -24.29296875 10.23046875 C-24.3086792 9.49207764 -24.32438965 8.75368652 -24.34057617 7.99291992 C-23.90522181 5.44539472 -23.01973472 4.56083027 -21 3 C-17.70982308 3 -16.68607492 4.2925211 -14.25 6.5625 C-13.13625 7.7690625 -13.13625 7.7690625 -12 9 C-11.9175 8.2575 -11.835 7.515 -11.75 6.75 C-10.02686222 0.43182815 -6.26060104 -1.02446199 0 0 Z " fill="#93C8E0" transform="translate(85,54)"/>
<path d="M0 0 C0.33 0 0.66 0 1 0 C1.33 2.31 1.66 4.62 2 7 C2.66 5.68 3.32 4.36 4 3 C5.32 3 6.64 3 8 3 C8 3.66 8 4.32 8 5 C8.99 5.33 9.98 5.66 11 6 C12.38576923 7.62332967 13.72641268 9.28724465 15 11 C13.125 10.6875 13.125 10.6875 11 10 C10.34 9.01 9.68 8.02 9 7 C9.33 13.93 9.66 20.86 10 28 C16.14428641 27.31788362 16.14428641 27.31788362 22 26 C22 26.99 22 27.98 22 29 C17.03006806 31.43425238 13.65394631 32.34615998 8 32 C8.66 33.65 9.32 35.3 10 37 C9.01 36.67 8.02 36.34 7 36 C6.67 35.34 6.34 34.68 6 34 C5.01 34 4.02 34 3 34 C3 33.34 3 32.68 3 32 C2.38125 31.87625 1.7625 31.7525 1.125 31.625 C-1 31 -1 31 -3 29 C-3.01171875 26.72265625 -3.01171875 26.72265625 -2.6875 24.0625 C-2.58824219 23.18722656 -2.48898438 22.31195313 -2.38671875 21.41015625 C-2 19 -2 19 -1 16 C-0.77202438 13.26710707 -0.58331813 10.54957796 -0.4375 7.8125 C-0.39431641 7.06291016 -0.35113281 6.31332031 -0.30664062 5.54101562 C-0.20077315 3.69421625 -0.0999024 1.84713166 0 0 Z " fill="#4E4847" transform="translate(7,42)"/>
<path d="M0 0 C3.30117932 0.08586883 4.84514362 0.21508207 7.75 1.875 C9.73914289 5.49162343 9.25562681 8.26025538 9.125 12.375 C10.115 13.86 10.115 13.86 11.125 15.375 C10.9375 17.5 10.9375 17.5 10.125 19.375 C9.135 19.705 8.145 20.035 7.125 20.375 C5.475 18.725 3.825 17.075 2.125 15.375 C0.64 17.85 0.64 17.85 -0.875 20.375 C-2.195 20.045 -3.515 19.715 -4.875 19.375 C-6.82863658 13.75829484 -7.61469377 8.32518369 -6.875 2.375 C-4.38459058 -0.11540942 -3.44345643 0.05108986 0 0 Z " fill="#1F9AD7" transform="translate(124.875,41.625)"/>
<path d="M0 0 C-0.04125 0.7425 -0.0825 1.485 -0.125 2.25 C0.00398134 5.08758952 0.57051222 6.58773938 2 9 C1.67 9.33 1.34 9.66 1 10 C1.66 10.33 2.32 10.66 3 11 C3.625 14.0625 3.625 14.0625 4 17 C2.4252706 17.72726052 0.83975721 18.43120422 -0.75 19.125 C-1.63171875 19.51945312 -2.5134375 19.91390625 -3.421875 20.3203125 C-6 21 -6 21 -8.1875 20.41796875 C-10.5330587 18.58297347 -11.20158397 16.96247419 -12.25 14.1875 C-12.75273438 12.90939453 -12.75273438 12.90939453 -13.265625 11.60546875 C-14.01711191 8.93928914 -14.13846545 6.75447334 -14 4 C-12.61518672 3.12808053 -11.21654754 2.27809616 -9.8125 1.4375 C-8.64654297 0.72400391 -8.64654297 0.72400391 -7.45703125 -0.00390625 C-4.51639033 -1.19605797 -2.99553637 -0.88855164 0 0 Z " fill="#87C5E1" transform="translate(115,45)"/>
<path d="M0 0 C1.65 0 3.3 0 5 0 C5.33 4.62 5.66 9.24 6 14 C0.35361217 17.3878327 0.35361217 17.3878327 -4.25 17.25 C-5.55710937 17.22679687 -5.55710937 17.22679687 -6.890625 17.203125 C-9 17 -9 17 -10 16 C-10.07313567 13.46950598 -10.09247527 10.96695163 -10.0625 8.4375 C-10.05798828 7.72658203 -10.05347656 7.01566406 -10.04882812 6.28320312 C-10.03700864 4.52209987 -10.01907263 2.76103964 -10 1 C-8.35 1 -6.7 1 -5 1 C-3.5393715 3.64738916 -3 4.89448334 -3 8 C-2.34 8 -1.68 8 -1 8 C-1.020625 6.865625 -1.04125 5.73125 -1.0625 4.5625 C-1 1 -1 1 0 0 Z " fill="#95BC35" transform="translate(116,27)"/>
<path d="M0 0 C2.375 0.3125 2.375 0.3125 5 1 C7 4 7 4 7 7 C7.66 7 8.32 7 9 7 C9.33 5.02 9.66 3.04 10 1 C11.65 0.67 13.3 0.34 15 0 C16.53266582 3.06533164 16.10276471 6.26754272 16.0625 9.625 C16.05798828 10.33140625 16.05347656 11.0378125 16.04882812 11.765625 C16.03703875 13.51045275 16.01910324 15.255237 16 17 C15.01 16.67 14.02 16.34 13 16 C13 14.35 13 12.7 13 11 C12.34 11 11.68 11 11 11 C11 12.65 11 14.3 11 16 C7.66666667 16 4.33333333 16 1 16 C-0.12862175 10.63904667 -0.09688221 5.44693314 0 0 Z " fill="#2FA1DA" transform="translate(42,61)"/>
<path d="M0 0 C1 3 1 3 1 7 C2.70112992 7.80469849 2.70112992 7.80469849 5 8 C8.21712945 6.64185993 8.21712945 6.64185993 11 5 C11.33 5.33 11.66 5.66 12 6 C13.68183948 6.23287008 15.3712416 6.41264166 17.0625 6.5625 C17.98160156 6.64628906 18.90070312 6.73007812 19.84765625 6.81640625 C20.91306641 6.90728516 20.91306641 6.90728516 22 7 C20.04783565 8.95216435 18.46800047 9.84826645 16 11 C16.42594588 12.44096586 16.86626633 13.87768712 17.3125 15.3125 C17.55613281 16.11300781 17.79976562 16.91351563 18.05078125 17.73828125 C19.04787062 20.11406211 20.16367262 21.24597301 22 23 C22 23.66 22 24.32 22 25 C20.375 25.6875 20.375 25.6875 18 26 C12.72413793 23.72413793 12.72413793 23.72413793 11 22 C10.95936168 20.33382885 10.957279 18.66611905 11 17 C12.32 17.99 13.64 18.98 15 20 C13.71034824 18.62437146 12.37310707 17.29233607 11 16 C10.34 16 9.68 16 9 16 C9 15.34 9 14.68 9 14 C8.34 14 7.68 14 7 14 C6.67 15.65 6.34 17.3 6 19 C5.34 18.67 4.68 18.34 4 18 C4 15.69 4 13.38 4 11 C3.071875 10.566875 3.071875 10.566875 2.125 10.125 C0 9 0 9 -2 7 C-1.43181818 1.43181818 -1.43181818 1.43181818 0 0 Z " fill="#4D4A4B" transform="translate(4,31)"/>
<path d="M0 0 C0.33 3.3 0.66 6.6 1 10 C5.40419135 10.15453303 8.55267763 10.13199676 12.8125 8.875 C13.864375 8.58625 14.91625 8.2975 16 8 C16.99 8.66 17.98 9.32 19 10 C17.02 10.33 15.04 10.66 13 11 C13.33 12.65 13.66 14.3 14 16 C15.32 16.33 16.64 16.66 18 17 C18.33 20.3 18.66 23.6 19 27 C20.32 27.33 21.64 27.66 23 28 C24.95216435 26.04783565 25.84826645 24.46800047 27 22 C27.36075949 26.44936709 27.36075949 26.44936709 25.8125 28.8125 C23.40904458 30.38717769 21.82812975 30.21210973 19 30 C15.97101343 29.69217798 15.97101343 29.69217798 14 31.5625 C13.34 32.036875 12.68 32.51125 12 33 C10.515 32.505 10.515 32.505 9 32 C9.969375 31.484375 10.93875 30.96875 11.9375 30.4375 C15.26125143 28.23912699 15.26125143 28.23912699 16.1875 24.5625 C16.36219371 20.83333149 16.36219371 20.83333149 13.5625 18.25 C12.716875 17.5075 11.87125 16.765 11 16 C11 15.01 11 14.02 11 13 C7.53058454 13.45822468 4.32604951 13.89131683 1 15 C0.67 17.97 0.34 20.94 0 24 C-0.721875 23.2575 -1.44375 22.515 -2.1875 21.75 C-4.68696089 19.30608268 -7.24427046 17.14334519 -10 15 C-12.00808464 12.99191536 -12.27108756 9.67267893 -13 7 C-12.01 7 -11.02 7 -10 7 C-8.35 9.97 -6.7 12.94 -5 16 C-3.68 15.67 -2.36 15.34 -1 15 C-1.59924224 10.80530429 -2.57499941 6.99000166 -4 3 C-1.125 0 -1.125 0 0 0 Z " fill="#3B3636" transform="translate(74,41)"/>
<path d="M0 0 C0.33 0.99 0.66 1.98 1 3 C-3.32564205 4.58255197 -7.428721 5.45144652 -12 6 C-8.7 6.33 -5.4 6.66 -2 7 C-2 7.66 -2 8.32 -2 9 C-4.36595143 10.18297571 -5.80776319 10.10136311 -8.4375 10.0625 C-9.61119141 10.04896484 -9.61119141 10.04896484 -10.80859375 10.03515625 C-11.53175781 10.02355469 -12.25492188 10.01195312 -13 10 C-16.06583565 9.82443828 -16.06583565 9.82443828 -19 11.125 C-19.99 11.41375 -20.98 11.7025 -22 12 C-22.99 11.34 -23.98 10.68 -25 10 C-24.875 7.6875 -24.875 7.6875 -24 5 C-20.9375 3.1875 -20.9375 3.1875 -18 2 C-17.67 2.33 -17.34 2.66 -17 3 C-16.67 2.34 -16.34 1.68 -16 1 C-10.74469407 -0.34751434 -5.38420602 -0.09576651 0 0 Z " fill="#6D7C44" transform="translate(29,28)"/>
<path d="M0 0 C1.47868218 5.91472871 1.02718345 12.03340395 0 18 C-0.66 18.66 -1.32 19.32 -2 20 C-5.53571429 19.46428571 -5.53571429 19.46428571 -7 18 C-7.07205511 16.31391034 -7.08386068 14.62499341 -7.0625 12.9375 C-7.05347656 12.01839844 -7.04445313 11.09929688 -7.03515625 10.15234375 C-7.01775391 9.08693359 -7.01775391 9.08693359 -7 8 C-8.65 7.67 -10.3 7.34 -12 7 C-12 5.35 -12 3.7 -12 2 C-7.82262526 0.40861915 -4.46839215 -0.21278058 0 0 Z " fill="#81BEDA" transform="translate(99,50)"/>
<path d="M0 0 C0.33 1.65 0.66 3.3 1 5 C0.030625 4.979375 -0.93875 4.95875 -1.9375 4.9375 C-4.87465895 4.64381501 -4.87465895 4.64381501 -6 6 C-5.36191406 6.06058594 -4.72382812 6.12117188 -4.06640625 6.18359375 C-3.24011719 6.26738281 -2.41382812 6.35117187 -1.5625 6.4375 C-0.32693359 6.55931641 -0.32693359 6.55931641 0.93359375 6.68359375 C3 7 3 7 4 8 C4.45434298 13.22494432 4.45434298 13.22494432 2.9375 15.8125 C0.0239814 17.59820495 -2.62624187 17.81597683 -6 18 C-6.66 17.34 -7.32 16.68 -8 16 C-8 15.01 -8 14.02 -8 13 C-5.03 13 -2.06 13 1 13 C0.67 12.34 0.34 11.68 0 11 C-0.63808594 11.01160156 -1.27617188 11.02320312 -1.93359375 11.03515625 C-3.17302734 11.04869141 -3.17302734 11.04869141 -4.4375 11.0625 C-5.67306641 11.07990234 -5.67306641 11.07990234 -6.93359375 11.09765625 C-9 11 -9 11 -10 10 C-10.37086093 4.1589404 -10.37086093 4.1589404 -10 2 C-6.3558226 -0.4294516 -4.28758728 -0.16179575 0 0 Z " fill="#2FA2DA" transform="translate(85,54)"/>
<path d="M0 0 C3.08358974 0.22025641 4.24166373 1.20714034 6.625 3.25 C8.90531547 5.89036528 10.13970506 7.64484975 11 11 C10.625 13.3125 10.625 13.3125 10 15 C9.071875 14.649375 8.14375 14.29875 7.1875 13.9375 C4.0197047 12.67617372 4.0197047 12.67617372 1 14 C-0.20882096 16.00016466 -0.20882096 16.00016466 -1 18 C-1.99 18 -2.98 18 -4 18 C-2.28571429 2.28571429 -2.28571429 2.28571429 0 0 Z " fill="#91BA2E" transform="translate(94,30)"/>
<path d="M0 0 C0.33 1.32 0.66 2.64 1 4 C-0.98 4 -2.96 4 -5 4 C-5.33 4.66 -5.66 5.32 -6 6 C-5.30132812 5.97679687 -4.60265625 5.95359375 -3.8828125 5.9296875 C-2.97273438 5.91164063 -2.06265625 5.89359375 -1.125 5.875 C0.23238281 5.84019531 0.23238281 5.84019531 1.6171875 5.8046875 C4 6 4 6 6 8 C5.8125 11 5.8125 11 5 14 C1.3558226 16.4294516 -0.71241272 16.16179575 -5 16 C-5.33 14.35 -5.66 12.7 -6 11 C-3.69 11.33 -1.38 11.66 1 12 C1 11.34 1 10.68 1 10 C-0.258125 10.061875 -1.51625 10.12375 -2.8125 10.1875 C-5.48703401 10.17801584 -6.71452998 10.16436153 -9.0625 8.8125 C-10 7 -10 7 -9.875 4.4375 C-8.08702218 -0.54329537 -4.63911948 -0.20618309 0 0 Z " fill="#90BA2C" transform="translate(55,43)"/>
<path d="M0 0 C0 0.99 0 1.98 0 3 C-2.31 3.66 -4.62 4.32 -7 5 C-6.24849977 8.27773504 -6.24849977 8.27773504 -3 10 C-3.99 10.33 -4.98 10.66 -6 11 C-6.33 11.99 -6.66 12.98 -7 14 C-4.36 13.67 -1.72 13.34 1 13 C1 13.99 1 14.98 1 16 C-3.26616316 17.13764351 -6.56486311 18 -11 18 C-12.03590199 12.94997778 -12.10251672 8.12583611 -12 3 C-10.56445975 2.49440092 -9.1264798 1.9957251 -7.6875 1.5 C-6.88699219 1.2215625 -6.08648437 0.943125 -5.26171875 0.65625 C-3 0 -3 0 0 0 Z " fill="#91BA2E" transform="translate(87,33)"/>
<path d="M0 0 C6.75 0.75 6.75 0.75 9 3 C9.3063859 5.73434962 9.5113336 8.38279821 9.625 11.125 C9.66367187 11.87910156 9.70234375 12.63320312 9.7421875 13.41015625 C9.83651031 15.27303184 9.91934662 17.13648255 10 19 C6.23431342 19.86311485 2.67420417 20.19243422 -1.1875 20.25 C-2.75564453 20.28867188 -2.75564453 20.28867188 -4.35546875 20.328125 C-5.22816406 20.21984375 -6.10085937 20.1115625 -7 20 C-9.52775351 16.20836973 -9.22443035 13.19125969 -9.125 8.8125 C-9.11597656 8.06291016 -9.10695312 7.31332031 -9.09765625 6.54101562 C-9.07412578 4.69387346 -9.03825561 2.84689588 -9 1 C-3.375 0.75 -3.375 0.75 0 3 C0 2.01 0 1.02 0 0 Z M-8 2 C-8.22084624 8.09781001 -8.01167675 13.21642935 -6 19 C-5.4225 18.62875 -4.845 18.2575 -4.25 17.875 C-2 17 -2 17 0.25 17.875 C0.8275 18.24625 1.405 18.6175 2 19 C3.29633621 17.93354885 3.29633621 17.93354885 3.0625 15.4375 C3.041875 14.633125 3.02125 13.82875 3 13 C3.66 13 4.32 13 5 13 C5 14.65 5 16.3 5 18 C5.99 18.33 6.98 18.66 8 19 C8.02691685 16.54159395 8.04679802 14.08348118 8.0625 11.625 C8.07087891 10.92632812 8.07925781 10.22765625 8.08789062 9.5078125 C8.1835442 5.62704624 8.1835442 5.62704624 7 2 C5.35 2.33 3.7 2.66 2 3 C1.67 4.98 1.34 6.96 1 9 C0.34 9 -0.32 9 -1 9 C-1.12375 8.21625 -1.2475 7.4325 -1.375 6.625 C-1.79117993 3.85942178 -1.79117993 3.85942178 -4 2 C-5.32 2 -6.64 2 -8 2 Z " fill="#CBE1EA" transform="translate(50,59)"/>
<path d="M0 0 C3.30117932 0.08586883 4.84514362 0.21508207 7.75 1.875 C9.73914289 5.49162343 9.25562681 8.26025538 9.125 12.375 C10.115 13.86 10.115 13.86 11.125 15.375 C10.9375 17.5 10.9375 17.5 10.125 19.375 C9.135 19.705 8.145 20.035 7.125 20.375 C5.475 18.725 3.825 17.075 2.125 15.375 C0.64 17.85 0.64 17.85 -0.875 20.375 C-2.195 20.045 -3.515 19.715 -4.875 19.375 C-6.82863658 13.75829484 -7.61469377 8.32518369 -6.875 2.375 C-4.38459058 -0.11540942 -3.44345643 0.05108986 0 0 Z M-4.875 2.375 C-6.10102512 6.05307537 -5.57795577 8.25743927 -4.9375 12.0625 C-4.74285156 13.24199219 -4.54820313 14.42148437 -4.34765625 15.63671875 C-4.19167969 16.54035156 -4.03570312 17.44398437 -3.875 18.375 C-2.885 18.375 -1.895 18.375 -0.875 18.375 C-0.545 16.395 -0.215 14.415 0.125 12.375 C1.23875 13.5815625 1.23875 13.5815625 2.375 14.8125 C4.87804829 17.14488591 5.8430955 18.01034394 9.125 18.375 C8.96 17.6325 8.795 16.89 8.625 16.125 C8.125 13.375 8.125 13.375 8.125 9.375 C7.86859405 5.55464327 7.86859405 5.55464327 6.125 2.375 C4.27212498 2.30273498 2.41666122 2.2911878 0.5625 2.3125 C-0.44941406 2.32152344 -1.46132812 2.33054688 -2.50390625 2.33984375 C-3.28636719 2.35144531 -4.06882812 2.36304688 -4.875 2.375 Z " fill="#C2D7DF" transform="translate(124.875,41.625)"/>
<path d="M0 0 C0.33 0 0.66 0 1 0 C1.33 1.98 1.66 3.96 2 6 C4.97 6 7.94 6 11 6 C11.33 6.99 11.66 7.98 12 9 C6.375 10.125 6.375 10.125 3 9 C3.66 10.32 4.32 11.64 5 13 C10.01535052 12.67039784 10.01535052 12.67039784 14 10 C14.16681109 6.91652174 14.16681109 6.91652174 14 4 C10.7 3.67 7.4 3.34 4 3 C4.66 2.01 5.32 1.02 6 0 C9.90009015 -0.50556724 12.12956837 -0.54401977 15.5 1.5625 C17 4 17 4 17.0625 7.5 C15.79139239 11.687178 14.82628053 12.92049971 11 15 C5.12042683 15.70960366 5.12042683 15.70960366 2.125 13.8125 C0.7033987 11.52214235 0.37244842 9.66921366 0 7 C-0.20625 5.9275 -0.4125 4.855 -0.625 3.75 C-0.74875 2.8425 -0.8725 1.935 -1 1 C-0.67 0.67 -0.34 0.34 0 0 Z " fill="#D0DFE2" transform="translate(74,58)"/>
<path d="M0 0 C-0.33 1.32 -0.66 2.64 -1 4 C-1.66 4 -2.32 4 -3 4 C-2.71125 4.60328125 -2.4225 5.2065625 -2.125 5.828125 C-1.75375 6.62734375 -1.3825 7.4265625 -1 8.25 C-0.62875 9.03890625 -0.2575 9.8278125 0.125 10.640625 C1 13 1 13 1 17 C-0.859375 16.75390625 -0.859375 16.75390625 -3 16 C-4.265625 14.15234375 -4.265625 14.15234375 -5.25 11.9375 C-5.58515625 11.20402344 -5.9203125 10.47054687 -6.265625 9.71484375 C-6.50796875 9.14894531 -6.7503125 8.58304688 -7 8 C-8.65 8 -10.3 8 -12 8 C-12.33 7.01 -12.66 6.02 -13 5 C-11.39967863 4.15930585 -9.79458829 3.32768495 -8.1875 2.5 C-6.84751953 1.80390625 -6.84751953 1.80390625 -5.48046875 1.09375 C-3 0 -3 0 0 0 Z " fill="#90BA2C" transform="translate(71,39)"/>
<path d="M0 0 C5.52206372 0.79653755 9.73861713 3.25349304 13.34765625 7.47265625 C16.06374759 11.25872297 16.53146907 12.88525616 16.47265625 17.47265625 C16.46363281 18.38273437 16.45460937 19.2928125 16.4453125 20.23046875 C16.43371094 20.92914062 16.42210937 21.6278125 16.41015625 22.34765625 C15.75015625 22.34765625 15.09015625 22.34765625 14.41015625 22.34765625 C14.32378906 21.61160156 14.23742187 20.87554688 14.1484375 20.1171875 C13.25101189 13.81203779 13.25101189 13.81203779 10.16015625 8.34765625 C3.41945605 3.44532883 -1.4172887 2.9550246 -9.58984375 3.34765625 C-6.61793739 -0.18675604 -4.43339429 -0.16580174 0 0 Z " fill="#3EA3DC" transform="translate(125.58984375,5.65234375)"/>
<path d="M0 0 C2.1875 -0.375 2.1875 -0.375 5 0 C9.78514495 4.89642739 12.28455714 8.71649877 12.3125 15.5625 C12.32925781 16.51253906 12.34601562 17.46257813 12.36328125 18.44140625 C11.94916641 21.35802152 11.27810098 22.2147863 9 24 C9.04640625 23.3709375 9.0928125 22.741875 9.140625 22.09375 C9.40343376 15.86142786 8.8518888 11.06581739 5 6 C3.06490539 4.329211 1.26358667 3.23468364 -1 2 C-0.67 1.34 -0.34 0.68 0 0 Z " fill="#3EA2DB" transform="translate(20,42)"/>
<path d="M0 0 C1.6875 0.125 1.6875 0.125 4 1 C5.67067133 2.99665598 7.33752986 4.99651034 9 7 C9.99 7 10.98 7 12 7 C12 7.66 12 8.32 12 9 C11.34 9 10.68 9 10 9 C10.33 10.65 10.66 12.3 11 14 C9.6078125 13.505 9.6078125 13.505 8.1875 13 C5.07970709 11.85032996 5.07970709 11.85032996 2 12 C2.33 9.69 2.66 7.38 3 5 C2.01 5 1.02 5 0 5 C0 3.35 0 1.7 0 0 Z " fill="#239BD7" transform="translate(64,59)"/>
<path d="M0 0 C0.66 0 1.32 0 2 0 C1.835 1.0725 1.67 2.145 1.5 3.25 C0.65708018 9.99335854 0.02724312 17.42414375 2 24 C-1.875 22.25 -1.875 22.25 -3 20 C-3.58942691 12.63216362 -3.10010967 6.71690429 0 0 Z " fill="#94BA3B" transform="translate(11,45)"/>
<path d="M0 0 C0.5534764 2.07553648 1 3.84365964 1 6 C1.32033957 8.00212229 1.65259077 10.00239695 2 12 C-0.64 12.33 -3.28 12.66 -6 13 C-6.70074844 9.846632 -7 7.27275026 -7 4 C-3.535 3.505 -3.535 3.505 0 3 C0 2.01 0 1.02 0 0 Z " fill="#B9C49B" transform="translate(87,33)"/>
<path d="M0 0 C0.59167969 0.08378906 1.18335937 0.16757812 1.79296875 0.25390625 C6.09939457 0.80889424 9.75552644 1.23226652 14 0 C11.44008376 2.01136276 8.95409701 3.62845496 6 5 C6 6.98 6 8.96 6 11 C5.01 11.495 5.01 11.495 4 12 C3.67 10.02 3.34 8.04 3 6 C1.02 6 -0.96 6 -3 6 C-2.01 4.02 -1.02 2.04 0 0 Z " fill="#555051" transform="translate(96,44)"/>
<path d="M0 0 C0.66 0.33 1.32 0.66 2 1 C2 3.64 2 6.28 2 9 C3.65 9.33 5.3 9.66 7 10 C5 12 5 12 2 13 C0.79117904 15.00016466 0.79117904 15.00016466 0 17 C-0.99 17 -1.98 17 -3 17 C-2.36934845 11.2190275 -1.34844868 5.6556294 0 0 Z " fill="#8FB92A" transform="translate(93,31)"/>
<path d="M0 0 C0.33 0.99 0.66 1.98 1 3 C-2.56045177 4.18681726 -5.43808337 4.09689832 -9.1875 4.0625 C-10.45980469 4.05347656 -11.73210938 4.04445313 -13.04296875 4.03515625 C-14.50669922 4.01775391 -14.50669922 4.01775391 -16 4 C-16 3.01 -16 2.02 -16 1 C-10.63904667 -0.12862175 -5.44693314 -0.09688221 0 0 Z " fill="#93B83B" transform="translate(29,28)"/>
<path d="M0 0 C0.90492187 0.02320312 1.80984375 0.04640625 2.7421875 0.0703125 C4.10730469 0.09738281 4.10730469 0.09738281 5.5 0.125 C6.19867188 0.14820312 6.89734375 0.17140625 7.6171875 0.1953125 C8.6796875 2.5703125 8.6796875 2.5703125 9.6171875 5.1953125 C9.2871875 5.8553125 8.9571875 6.5153125 8.6171875 7.1953125 C2.79310985 8.76938754 -3.39920301 8.28245244 -9.3828125 8.1953125 C-9.0528125 6.8753125 -8.7228125 5.5553125 -8.3828125 4.1953125 C-8.3828125 5.1853125 -8.3828125 6.1753125 -8.3828125 7.1953125 C-1.4528125 6.2053125 -1.4528125 6.2053125 5.6171875 5.1953125 C5.6171875 4.5353125 5.6171875 3.8753125 5.6171875 3.1953125 C2.3171875 2.8653125 -0.9828125 2.5353125 -4.3828125 2.1953125 C-2.3828125 0.1953125 -2.3828125 0.1953125 0 0 Z " fill="#49434B" transform="translate(43.3828125,27.8046875)"/>
<path d="M0 0 C1.98 0.66 3.96 1.32 6 2 C6.33 5.3 6.66 8.6 7 12 C8.32 12.33 9.64 12.66 11 13 C12.95216435 11.04783565 13.84826645 9.46800047 15 7 C15.36075949 11.44936709 15.36075949 11.44936709 13.8125 13.8125 C11.40904458 15.38717769 9.82812975 15.21210973 7 15 C3.97101343 14.69217798 3.97101343 14.69217798 2 16.5625 C1.34 17.036875 0.68 17.51125 0 18 C-0.99 17.67 -1.98 17.34 -3 17 C-2.030625 16.484375 -1.06125 15.96875 -0.0625 15.4375 C3.27978626 13.23948555 3.27978626 13.23948555 4.125 9.5 C4.35692092 5.94492912 4.35692092 5.94492912 2.0625 3.6875 C1.381875 3.130625 0.70125 2.57375 0 2 C0 1.34 0 0.68 0 0 Z " fill="#3F3B3B" transform="translate(86,56)"/>
<path d="M0 0 C0.825 0.70125 1.65 1.4025 2.5 2.125 C6.19712128 4.10560068 6.60605919 4.22911986 10.375 3.25 C11.57125 2.8375 12.7675 2.425 14 2 C13.70703125 3.88671875 13.70703125 3.88671875 13 6 C9.84268346 7.7275883 7.32866357 9 3.6875 9 C1.16487513 7.50511119 0.78732452 5.75563582 0 3 C0 2.01 0 1.02 0 0 Z " fill="#239CD9" transform="translate(104,55)"/>
<path d="M0 0 C2.475 0.99 2.475 0.99 5 2 C5 2.99 5 3.98 5 5 C3.68 5.33 2.36 5.66 1 6 C1.33 6.99 1.66 7.98 2 9 C1.72428861 11.00875442 1.39764263 13.01178687 1 15 C0.01 15 -0.98 15 -2 15 C-3.125 8.375 -3.125 8.375 -2 5 C-1.34 5 -0.68 5 0 5 C0 3.35 0 1.7 0 0 Z " fill="#4FA8D4" transform="translate(123,45)"/>
<path d="M0 0 C1.99954746 -0.04254356 4.00041636 -0.04080783 6 0 C7 1 7 1 7.25 3.875 C7 7 7 7 5.9375 8.8125 C3.0239814 10.59820495 0.37375813 10.81597683 -3 11 C-3.66 10.34 -4.32 9.68 -5 9 C-5 8.01 -5 7.02 -5 6 C-2.03 6 0.94 6 4 6 C4.33 4.68 4.66 3.36 5 2 C3.35 1.67 1.7 1.34 0 1 C0 0.67 0 0.34 0 0 Z " fill="#269EDA" transform="translate(82,61)"/>
<path d="M0 0 C1.3125 2.0625 1.3125 2.0625 2 4 C1.67 4.33 1.34 4.66 1 5 C1.66 5.66 2.32 6.32 3 7 C0.36 7.99 -2.28 8.98 -5 10 C-5 8.68 -5 7.36 -5 6 C-4.360625 5.71125 -3.72125 5.4225 -3.0625 5.125 C-0.84793921 4.17176549 -0.84793921 4.17176549 0 2 C-2.64 2.33 -5.28 2.66 -8 3 C-7.67 2.01 -7.34 1.02 -7 0 C-4.25509788 -1.37245106 -2.87939419 -0.93580311 0 0 Z " fill="#BDDFEB" transform="translate(115,50)"/>
<path d="M0 0 C0 0.33 0 0.66 0 1 C-2.01822917 1.45572917 -4.03645833 1.91145833 -6.0546875 2.3671875 C-8.20719964 2.90474428 -8.20719964 2.90474428 -10 5 C-10.33333333 8 -10.33333333 8 -10 11 C-9.34 11.66 -8.68 12.32 -8 13 C-7.67 14.010625 -7.34 15.02125 -7 16.0625 C-6.34247444 19.12150806 -6.34247444 19.12150806 -4 20 C-4.66 21.32 -5.32 22.64 -6 24 C-8.31042723 20.42933973 -9.68570402 17.03050768 -11 13 C-11.66 12.01 -12.32 11.02 -13 10 C-13.375 7.5625 -13.375 7.5625 -13 5 C-8.91573703 0.09888443 -6.24666168 -0.11567892 0 0 Z " fill="#413D3E" transform="translate(55,40)"/>
<path d="M0 0 C0.66 0.33 1.32 0.66 2 1 C-2.82732192 5.93291958 -6.05992846 7.75648872 -13 8 C-13.33 6.68 -13.66 5.36 -14 4 C-13.32453125 3.87882812 -12.6490625 3.75765625 -11.953125 3.6328125 C-10.61507813 3.38144531 -10.61507813 3.38144531 -9.25 3.125 C-8.36828125 2.96257812 -7.4865625 2.80015625 -6.578125 2.6328125 C-3.99249343 2.10389584 -3.99249343 2.10389584 -1.796875 0.8671875 C-0.90742188 0.43792969 -0.90742188 0.43792969 0 0 Z " fill="#3EA1D9" transform="translate(29,70)"/>
<path d="M0 0 C0.99 0.33 1.98 0.66 3 1 C3.33 1.99 3.66 2.98 4 4 C3.34 4 2.68 4 2 4 C-0.03219488 7.40351338 -0.36891039 10.3232927 -0.625 14.25 C-0.69976562 15.32765625 -0.77453125 16.4053125 -0.8515625 17.515625 C-0.90054688 18.33546875 -0.94953125 19.1553125 -1 20 C-1.66 20 -2.32 20 -3 20 C-3.16852247 18.39602723 -3.33474886 16.7918131 -3.5 15.1875 C-3.5928125 14.29417969 -3.685625 13.40085937 -3.78125 12.48046875 C-4 10 -4 10 -4 7 C-3 6 -2 5 -1 4 C-0.28552357 1.89667109 -0.28552357 1.89667109 0 0 Z " fill="#5F5553" transform="translate(62,52)"/>
<path d="M0 0 C1.67542976 0.28604898 3.34385343 0.61781233 5 1 C5.6875 2.8125 5.6875 2.8125 6 5 C4.5625 6.75 4.5625 6.75 3 8 C0.525 7.01 0.525 7.01 -2 6 C-1.125 1.125 -1.125 1.125 0 0 Z " fill="#8DAE3D" transform="translate(6,32)"/>
<path d="M0 0 C0.66 0.33 1.32 0.66 2 1 C2.34153937 2.66500443 2.67449498 4.33178677 3 6 C3.66 6.66 4.32 7.32 5 8 C5.14507695 10.74485593 5.18652423 13.38480543 5.125 16.125 C5.11597656 16.87910156 5.10695313 17.63320313 5.09765625 18.41015625 C5.0740687 20.27357254 5.03819719 22.13682593 5 24 C4.67 24 4.34 24 4 24 C3.96132812 22.78763672 3.96132812 22.78763672 3.921875 21.55078125 C3.58887426 15.27674451 3.34235025 11.76257769 -1 7 C-1.3125 3.75 -1.3125 3.75 -1 1 C-0.67 0.67 -0.34 0.34 0 0 Z " fill="#3CA9E5" transform="translate(1,33)"/>
<path d="M0 0 C-0.33 0.66 -0.66 1.32 -1 2 C-4.80626935 3.26875645 -8.41595741 3.31963223 -12.40625 3.5234375 C-15.3627611 4.06665189 -16.02716464 4.85511505 -18 7 C-18.99 7 -19.98 7 -21 7 C-21 5 -21 5 -19.37109375 2.921875 C-16.45223586 0.55601325 -14.77948767 0.41874093 -11.0625 0.25 C-10.04285156 0.19328125 -9.02320313 0.1365625 -7.97265625 0.078125 C-5.31305957 0.00822758 -2.6603187 -0.01959719 0 0 Z " fill="#3F99CC" transform="translate(51,35)"/>
<path d="M0 0 C0 1.32 0 2.64 0 4 C-4.29 4 -8.58 4 -13 4 C-13 3.01 -13 2.02 -13 1 C-8.61414671 0.29826347 -4.44209357 -0.10834375 0 0 Z " fill="#98BF3A" transform="translate(49,30)"/>
<path d="M0 0 C3 1 3 1 4.8125 3.125 C6.90018937 5.34566837 6.90018937 5.34566837 10 4.875 C12.55762679 4.12902552 14.70073775 3.32649745 17 2 C15.63016497 5.16115776 15.0109362 5.9927092 12 8 C8.03892476 8.4321173 5.88647377 8.6531912 2.625 6.25 C1.05214568 4.07220172 0.37623037 2.63361256 0 0 Z " fill="#3EA3DC" transform="translate(86,16)"/>
<path d="M0 0 C4.53460431 1.13365108 5.90024653 2.64193374 9 6 C8.67 6.66 8.34 7.32 8 8 C6.35 7.01 4.7 6.02 3 5 C3.33 6.32 3.66 7.64 4 9 C3.01 9.33 2.02 9.66 1 10 C0.67 6.7 0.34 3.4 0 0 Z " fill="#AFCA6B" transform="translate(94,30)"/>
<path d="M0 0 C1.1446875 0.2475 1.1446875 0.2475 2.3125 0.5 C5.03596236 1.09145396 5.03596236 1.09145396 8 1 C7.01 5.29 6.02 9.58 5 14 C4.34 13.67 3.68 13.34 3 13 C2.375 9.9375 2.375 9.9375 2 7 C2.66 7 3.32 7 4 7 C3.73323796 5.01508358 3.73323796 5.01508358 3 3 C2.01 2.67 1.02 2.34 0 2 C0 1.34 0 0.68 0 0 Z " fill="#565258" transform="translate(84,30)"/>
<path d="M0 0 C0.33 1.65 0.66 3.3 1 5 C-1.64 5 -4.28 5 -7 5 C-7 4.34 -7 3.68 -7 3 C-7.99 3.33 -8.98 3.66 -10 4 C-10 3.34 -10 2.68 -10 2 C-6.3558226 -0.4294516 -4.28758728 -0.16179575 0 0 Z " fill="#5FB6E0" transform="translate(85,54)"/>
<path d="M0 0 C0.721875 0.825 1.44375 1.65 2.1875 2.5 C4.72917366 5.24407806 4.72917366 5.24407806 7.8125 5.3125 C8.8953125 5.1578125 8.8953125 5.1578125 10 5 C10.33 5.99 10.66 6.98 11 8 C9.375 8.6875 9.375 8.6875 7 9 C1.72413793 6.72413793 1.72413793 6.72413793 0 5 C-0.04063832 3.33382885 -0.042721 1.66611905 0 0 Z " fill="#3DA5DE" transform="translate(15,48)"/>
<path d="M0 0 C1.32 0.66 2.64 1.32 4 2 C2.02 2.33 0.04 2.66 -2 3 C-2.33 4.65 -2.66 6.3 -3 8 C-3.33 7.01 -3.66 6.02 -4 5 C-6.97 4.67 -9.94 4.34 -13 4 C-13 3.67 -13 3.34 -13 3 C-12.14535156 2.86722656 -11.29070312 2.73445313 -10.41015625 2.59765625 C-9.30542969 2.42105469 -8.20070313 2.24445312 -7.0625 2.0625 C-5.96035156 1.88847656 -4.85820313 1.71445312 -3.72265625 1.53515625 C-1.09573071 1.28154864 -1.09573071 1.28154864 0 0 Z " fill="#575052" transform="translate(89,49)"/>
<path d="M0 0 C-0.33 0.99 -0.66 1.98 -1 3 C-5.75 2.125 -5.75 2.125 -8 1 C-7.67 2.98 -7.34 4.96 -7 7 C-8.5 5.75 -8.5 5.75 -10 4 C-10 2.68 -10 1.36 -10 0 C-6.33694766 -0.74926071 -3.57644848 -1.2380014 0 0 Z " fill="#D1D4C6" transform="translate(57,53)"/>
<path d="M0 0 C0.33 1.32 0.66 2.64 1 4 C1.99 4 2.98 4 4 4 C4.33 5.32 4.66 6.64 5 8 C3.35 8.33 1.7 8.66 0 9 C-0.87890625 2.84765625 -0.87890625 2.84765625 -1 1 C-0.67 0.67 -0.34 0.34 0 0 Z " fill="#4BABDA" transform="translate(63,60)"/>
<path d="M0 0 C0.33 1.32 0.66 2.64 1 4 C0.05125 3.979375 -0.8975 3.95875 -1.875 3.9375 C-4.90666283 3.77448174 -4.90666283 3.77448174 -7 5 C-7.33 3.68 -7.66 2.36 -8 1 C-5.29120665 -0.35439668 -2.99066732 -0.06501451 0 0 Z " fill="#8AB621" transform="translate(55,43)"/>
<path d="M0 0 C1.10844919 3.32534757 0.84454356 5.62182575 0 9 C-1.98 8.34 -3.96 7.68 -6 7 C-6 6.34 -6 5.68 -6 5 C-3 3 -3 3 0 3 C0 2.01 0 1.02 0 0 Z " fill="#ACBB85" transform="translate(87,33)"/>
<path d="M0 0 C0.33 0 0.66 0 1 0 C1.13277344 0.74765625 1.26554688 1.4953125 1.40234375 2.265625 C1.57894531 3.25046875 1.75554688 4.2353125 1.9375 5.25 C2.19853516 6.71179687 2.19853516 6.71179687 2.46484375 8.203125 C2.90379729 10.49721795 3.40348592 12.74291971 4 15 C2.68 14.34 1.36 13.68 0 13 C0 8.71 0 4.42 0 0 Z " fill="#9DC839" transform="translate(9,54)"/>
<path d="M0 0 C0.33 0.99 0.66 1.98 1 3 C-1.31 2.67 -3.62 2.34 -6 2 C-6 2.66 -6 3.32 -6 4 C-7.65 4.33 -9.3 4.66 -11 5 C-11 4.01 -11 3.02 -11 2 C-3.375 0 -3.375 0 0 0 Z " fill="#1D9BDA" transform="translate(99,51)"/>
<path d="M0 0 C-0.33 0.66 -0.66 1.32 -1 2 C-3.64860427 2.59355614 -6.29197322 2.74209269 -9 3 C-9 2.01 -9 1.02 -9 0 C-5.62182575 -0.84454356 -3.32534757 -1.10844919 0 0 Z " fill="#8CB724" transform="translate(89,47)"/>
<path d="M0 0 C-2.17041896 1.12540242 -4.24360501 2.0831822 -6.5625 2.875 C-9.33425106 4.15426972 -10.38646842 5.45231855 -12 8 C-12.99 7.01 -13.98 6.02 -15 5 C-14.01 5 -13.02 5 -12 5 C-11.67 4.01 -11.34 3.02 -11 2 C-7.24092359 0.37676246 -4.07913787 -0.23994929 0 0 Z " fill="#413C3D" transform="translate(84,31)"/>
<path d="M0 0 C-0.33 0.66 -0.66 1.32 -1 2 C-2.62463842 2.05395478 -4.24978541 2.09277195 -5.875 2.125 C-6.77992187 2.14820313 -7.68484375 2.17140625 -8.6171875 2.1953125 C-11 2 -11 2 -13 0 C-11.58456585 -0.19658808 -10.16755969 -0.38187546 -8.75 -0.5625 C-7.96109375 -0.66691406 -7.1721875 -0.77132812 -6.359375 -0.87890625 C-3.99467126 -1.00027349 -2.2488963 -0.69633257 0 0 Z " fill="#433A4D" transform="translate(28,33)"/>
<path d="M0 0 C0.66 0.33 1.32 0.66 2 1 C2 1.66 2 2.32 2 3 C1.34 3 0.68 3 0 3 C0.33 4.65 0.66 6.3 1 8 C-0.32 7.34 -1.64 6.68 -3 6 C-3 5.34 -3 4.68 -3 4 C-3.66 3.67 -4.32 3.34 -5 3 C-4.360625 2.87625 -3.72125 2.7525 -3.0625 2.625 C-2.0415625 2.315625 -2.0415625 2.315625 -1 2 C-0.67 1.34 -0.34 0.68 0 0 Z " fill="#3392C2" transform="translate(74,65)"/>
<path d="M0 0 C0.33 0 0.66 0 1 0 C1.3125 3.3125 1.3125 3.3125 1 7 C-1.375 9 -1.375 9 -4 10 C-4.66 9.67 -5.32 9.34 -6 9 C-5.1875 6.5625 -5.1875 6.5625 -4 4 C-3.01 3.67 -2.02 3.34 -1 3 C-0.67 2.01 -0.34 1.02 0 0 Z " fill="#B5D36D" transform="translate(121,34)"/>
<path d="M0 0 C0 0.66 0 1.32 0 2 C-2.8125 2.6875 -2.8125 2.6875 -6 3 C-7.875 1.5625 -7.875 1.5625 -9 0 C-3.375 -1.125 -3.375 -1.125 0 0 Z " fill="#B5CEDB" transform="translate(86,65)"/>
<path d="M0 0 C1.98 0.66 3.96 1.32 6 2 C6 5.3 6 8.6 6 12 C5.67 12 5.34 12 5 12 C4.731875 10.906875 4.46375 9.81375 4.1875 8.6875 C3.08641352 5.26833673 2.57525074 4.22408019 0 2 C0 1.34 0 0.68 0 0 Z " fill="#383231" transform="translate(86,56)"/>
<path d="M0 0 C0.66 0 1.32 0 2 0 C2.33 0.99 2.66 1.98 3 3 C2.01 4.485 2.01 4.485 1 6 C2.32 6.66 3.64 7.32 5 8 C3.33388095 8.042721 1.66617115 8.04063832 0 8 C-1 7 -1 7 -1.125 4 C-1 1 -1 1 0 0 Z " fill="#1C99D7" transform="translate(76,57)"/>
<path d="M0 0 C0.33 0 0.66 0 1 0 C1 3.63 1 7.26 1 11 C0.01 10.67 -0.98 10.34 -2 10 C-2 8.35 -2 6.7 -2 5 C-1.34 5 -0.68 5 0 5 C0 3.35 0 1.7 0 0 Z " fill="#1897D6" transform="translate(57,67)"/>
<path d="M0 0 C0.66 0 1.32 0 2 0 C2.21278058 4.46839215 1.59138085 7.82262526 0 12 C-0.33 12 -0.66 12 -1 12 C-1.14285714 3.42857143 -1.14285714 3.42857143 0 0 Z " fill="#3CA9E6" transform="translate(3,59)"/>
<path d="M0 0 C3.85645121 -0.22036864 6.49223216 0.39644899 10 2 C10 2.33 10 2.66 10 3 C6.7 3 3.4 3 0 3 C0 2.01 0 1.02 0 0 Z " fill="#9AC33A" transform="translate(13,29)"/>
<path d="M0 0 C0.99 0.33 1.98 0.66 3 1 C3.125 4.375 3.125 4.375 3 8 C2.34 8.66 1.68 9.32 1 10 C-0.125 8.25 -0.125 8.25 -1 6 C-0.0625 3.875 -0.0625 3.875 1 2 C0.67 1.34 0.34 0.68 0 0 Z " fill="#31A1D9" transform="translate(128,45)"/>
<path d="M0 0 C0.99 0.33 1.98 0.66 3 1 C3.33 2.65 3.66 4.3 4 6 C2.35 5.67 0.7 5.34 -1 5 C-0.67 3.35 -0.34 1.7 0 0 Z " fill="#95BD33" transform="translate(46,45)"/>
<path d="M0 0 C0.33 0 0.66 0 1 0 C1.12375 0.763125 1.2475 1.52625 1.375 2.3125 C1.88102792 5.20267136 1.88102792 5.20267136 4 8 C3.67 8.99 3.34 9.98 3 11 C2.01 10.67 1.02 10.34 0 10 C0 6.7 0 3.4 0 0 Z " fill="#1A98D6" transform="translate(43,67)"/>
<path d="M0 0 C1.99954746 -0.04254356 4.00041636 -0.04080783 6 0 C7 1 7 1 7.0625 4.0625 C7.041875 5.031875 7.02125 6.00125 7 7 C5.68 7 4.36 7 3 7 C3.66 5.35 4.32 3.7 5 2 C3.35 1.67 1.7 1.34 0 1 C0 0.67 0 0.34 0 0 Z " fill="#1294D4" transform="translate(82,61)"/>
<path d="M0 0 C0.66 0 1.32 0 2 0 C2.33 3.3 2.66 6.6 3 10 C0.9375 7.8125 0.9375 7.8125 -1 5 C-0.75 2.1875 -0.75 2.1875 0 0 Z " fill="#3B3635" transform="translate(115,45)"/>
<path d="M0 0 C0.125 7.75 0.125 7.75 -1 10 C-1.66 9.67 -2.32 9.34 -3 9 C-3.8125 6.125 -3.8125 6.125 -4 3 C-1.8 0 -1.8 0 0 0 Z " fill="#423C43" transform="translate(90,34)"/>
<path d="M0 0 C-2.62198774 2.15377564 -4.64404172 3.40072174 -8 4 C-8.33 3.01 -8.66 2.02 -9 1 C-5.8035914 -0.06546953 -3.34252724 -0.07427838 0 0 Z " fill="#BCC1C2" transform="translate(118,56)"/>
<path d="M0 0 C-0.33 0.99 -0.66 1.98 -1 3 C-3.375 3.625 -3.375 3.625 -6 4 C-6.66 3.34 -7.32 2.68 -8 2 C-4.91190305 0.23537317 -3.76687864 0 0 0 Z " fill="#1795D5" transform="translate(115,52)"/>
<path d="M0 0 C5.75 0.75 5.75 0.75 8 3 C5.03 3 2.06 3 -1 3 C-0.67 2.01 -0.34 1.02 0 0 Z " fill="#C9D7A6" transform="translate(50,46)"/>
<path d="M0 0 C-0.598125 0.268125 -1.19625 0.53625 -1.8125 0.8125 C-4.04267613 1.88022403 -4.04267613 1.88022403 -5.5625 3.625 C-7 5 -7 5 -10 5 C-10 4.34 -10 3.68 -10 3 C-6.81719857 -0.18280143 -4.38555569 -0.29901516 0 0 Z " fill="#3CABE8" transform="translate(40,37)"/>
<path d="M0 0 C0 0.66 0 1.32 0 2 C-0.99 2 -1.98 2 -3 2 C-3 2.66 -3 3.32 -3 4 C-4.32 4 -5.64 4 -7 4 C-6.67 3.01 -6.34 2.02 -6 1 C-4 0 -4 0 0 0 Z " fill="#B0B5B7" transform="translate(114,49)"/>
<path d="M0 0 C1.65 0 3.3 0 5 0 C5.33 0.99 5.66 1.98 6 3 C4.02 3.33 2.04 3.66 0 4 C-0.33 3.34 -0.66 2.68 -1 2 C-0.67 1.34 -0.34 0.68 0 0 Z " fill="#36A4DA" transform="translate(109,46)"/>
<path d="M0 0 C-0.33 2.31 -0.66 4.62 -1 7 C-1.66 7 -2.32 7 -3 7 C-3.6875 5.1875 -3.6875 5.1875 -4 3 C-1.64285714 0 -1.64285714 0 0 0 Z " fill="#464246" transform="translate(74,41)"/>
<path d="M0 0 C0 0.99 0 1.98 0 3 C-3.01031744 3.93423645 -3.86650268 4.04449911 -7 3 C-7 2.34 -7 1.68 -7 1 C-4.50935112 0.31292445 -2.62113708 0 0 0 Z " fill="#93BD2E" transform="translate(87,33)"/>
<path d="M0 0 C2.31 0.66 4.62 1.32 7 2 C7 2.33 7 2.66 7 3 C4.03 3 1.06 3 -2 3 C-1.34 2.01 -0.68 1.02 0 0 Z " fill="#ABCFE1" transform="translate(80,58)"/>
<path d="M0 0 C0.99 0.33 1.98 0.66 3 1 C2.67 2.32 2.34 3.64 2 5 C1.01 5 0.02 5 -1 5 C-0.67 3.35 -0.34 1.7 0 0 Z " fill="#463E4C" transform="translate(7,33)"/>
</svg>
