<svg width="79.000000" height="65.000000" viewBox="0 0 79 65" fill="none" xmlns="http://www.w3.org/2000/svg" xmlns:xlink="http://www.w3.org/1999/xlink">
	<desc>
			Created with Pixso.
	</desc>
	<defs/>
	<path id="Vector" d="M76.7 27.08C76.3 25.88 75.93 24.87 75.64 23.81C75.45 23.15 75.08 22.97 74.43 22.99C72.39 23.07 70.33 22.97 68.32 23.21C66.3 23.46 64.92 22.86 64.01 21.06C63.74 20.53 63.28 20.05 62.89 19.58C62.35 18.93 62.24 18.29 62.55 17.49C63.45 15.21 64.22 12.9 65.11 10.6C65.4 9.86 65.26 9.4 64.59 8.97C63.36 8.14 62.22 7.25 61.04 6.43C59.37 5.29 59.83 5.21 58.16 6.45C56.33 7.81 54.5 9.16 52.69 10.56C52.11 11.02 51.55 11.08 50.86 10.83C49.76 10.42 48.66 10 47.51 9.76C46.54 9.53 46.08 8.97 45.83 8.06C45.16 5.75 44.41 3.45 43.75 1.14C43.56 0.47 43.23 0.14 42.54 0.12C40.84 0.1 39.15 0.1 37.47 0.02C36.53 -0.02 36.01 0.31 35.74 1.24C35.12 3.49 34.37 5.7 33.72 7.96C33.47 8.85 33.06 9.36 32.1 9.57C30.89 9.84 29.69 10.21 28.54 10.67C27.75 10.98 27.17 10.83 26.55 10.36C24.51 8.81 22.45 7.3 20.43 5.72C19.89 5.31 19.47 5.31 18.95 5.7C17.5 6.76 16.02 7.79 14.54 8.78C13.92 9.2 13.9 9.63 14.15 10.27C15.06 12.65 15.94 15.05 16.75 17.45C16.89 17.88 16.75 18.54 16.5 18.93C15.75 20.09 14.83 21.15 14.06 22.28C13.61 22.95 13.07 23.21 12.25 23.17C9.7 23.07 7.14 23.01 4.56 22.99C4.2 22.99 3.64 23.15 3.54 23.4C3.06 24.56 2.71 25.76 2.25 27.08C2.81 27.08 3.19 27.08 3.58 27.08C7.39 27.08 11.21 27 15.02 27.12C16.52 27.16 17.52 26.87 18.02 25.39C18.18 24.91 18.56 24.5 18.83 24.08C25.11 14.45 37.99 10.56 48.62 15.03C54.13 17.34 58.27 21.11 61.12 26.34C61.28 26.67 61.74 27.06 62.05 27.06C66.86 27.1 71.69 27.08 76.7 27.08Z" fill="#FFFFFF" fill-opacity="1.000000" fill-rule="nonzero"/>
	<path id="Vector" d="M76.7 27.08C71.66 27.08 66.86 27.1 62.03 27.04C61.72 27.04 61.26 26.65 61.1 26.32C58.25 21.09 54.11 17.32 48.6 15.01C37.99 10.56 25.11 14.45 18.79 24.06C18.5 24.5 18.12 24.89 17.98 25.36C17.48 26.85 16.48 27.16 14.98 27.1C11.17 26.98 7.37 27.06 3.54 27.06C3.16 27.06 2.79 27.06 2.21 27.06C2.64 25.76 3 24.54 3.5 23.38C3.6 23.13 4.16 22.97 4.52 22.97C7.08 22.99 9.65 23.05 12.21 23.15C13.05 23.19 13.57 22.93 14.02 22.26C14.81 21.13 15.71 20.07 16.46 18.91C16.71 18.52 16.85 17.86 16.71 17.43C15.9 15.01 15 12.63 14.11 10.25C13.86 9.61 13.9 9.18 14.5 8.76C16 7.77 17.46 6.72 18.91 5.68C19.43 5.31 19.85 5.29 20.39 5.7C22.41 7.28 24.49 8.78 26.5 10.33C27.13 10.81 27.71 10.98 28.5 10.64C29.65 10.19 30.85 9.82 32.06 9.55C33.02 9.34 33.43 8.83 33.68 7.94C34.3 5.68 35.05 3.47 35.7 1.22C35.97 0.29 36.49 -0.04 37.42 0C39.11 0.08 40.82 0.08 42.5 0.1C43.21 0.1 43.52 0.43 43.71 1.11C44.37 3.43 45.12 5.72 45.79 8.04C46.04 8.95 46.49 9.51 47.47 9.74C48.62 10 49.72 10.4 50.82 10.81C51.51 11.08 52.07 11 52.65 10.54C54.46 9.16 56.29 7.79 58.12 6.43C59.79 5.19 59.35 5.27 60.99 6.41C62.18 7.23 63.34 8.12 64.55 8.91C65.22 9.34 65.36 9.8 65.07 10.54C64.2 12.82 63.41 15.13 62.51 17.43C62.2 18.23 62.3 18.87 62.84 19.51C63.24 19.99 63.68 20.46 63.97 21C64.88 22.8 66.26 23.4 68.27 23.15C70.29 22.9 72.35 23.01 74.39 22.93C75.03 22.9 75.41 23.11 75.6 23.75C75.95 24.87 76.32 25.88 76.7 27.08Z" fill="#FF3811" fill-opacity="1.000000" fill-rule="nonzero"/>
	<path id="Vector" d="M55.56 34.07C53.11 31.65 50.63 29.21 48.16 26.75C47.72 26.32 47.45 26.6 47.14 26.91C45.97 28.09 44.81 29.27 43.62 30.41C42.88 31.13 42.06 31.84 41.27 32.54C41.34 32.64 41.4 32.72 41.46 32.83C43.77 32.37 45.79 32.85 47.45 34.48C49.09 36.11 49.53 38.16 49.12 40.37C51.28 38.26 53.38 36.2 55.56 34.07Z" fill="#FFFFFF" fill-opacity="1.000000" fill-rule="nonzero"/>
	<path id="Vector" d="M37.63 32.7C37.32 32.35 37.18 32.12 36.99 31.94C35.32 30.28 33.62 28.67 32 26.98C31.41 26.38 31.06 26.4 30.5 26.98C28.33 29.17 26.17 31.32 23.95 33.45C23.38 33.99 23.51 34.32 23.99 34.79C25.73 36.51 27.46 38.24 29.21 39.96C29.35 40.1 29.56 40.19 29.81 40.35C29.08 35.39 32.58 31.98 37.63 32.7Z" fill="#FFFFFF" fill-opacity="1.000000" fill-rule="nonzero"/>
	<path id="Vector" d="M29.54 24.6C26.9 27.27 24.34 29.87 21.8 32.43C21.99 32.68 22.24 33.03 22.47 33.32C25.15 30.66 27.73 28.11 30.48 25.41C30.19 25.16 29.85 24.87 29.54 24.6Z" fill="#FFFFFF" fill-opacity="1.000000" fill-rule="nonzero"/>
	<path id="Vector" d="M59.06 30.66C59 30.55 58.95 30.43 58.87 30.33C56.52 27.99 54.19 25.67 51.84 23.34C51.45 22.95 51.15 22.93 50.72 23.34C50.26 23.79 50.34 24.1 50.76 24.52C52.86 26.56 54.92 28.63 57 30.7C57.33 31.03 57.69 31.34 58.16 31.79C58.48 31.4 58.73 31.09 59.06 30.66Z" fill="#FFFFFF" fill-opacity="1.000000" fill-rule="nonzero"/>
	<path id="Vector" d="M57.39 32.31C54.98 29.91 52.61 27.58 50.24 25.2C49.84 24.81 49.51 24.5 48.97 25.07C48.45 25.63 48.74 25.96 49.16 26.36C51.28 28.44 53.38 30.53 55.48 32.62C56.42 33.57 56.44 33.57 57.39 32.31Z" fill="#FFFFFF" fill-opacity="1.000000" fill-rule="nonzero"/>
	<path id="Vector" d="M28.67 23.83C27.73 22.7 27.75 22.7 26.75 23.67C24.72 25.7 22.68 27.7 20.66 29.73C19.68 30.7 19.7 30.82 20.87 31.48C23.47 28.94 26.05 26.4 28.67 23.83Z" fill="#FFFFFF" fill-opacity="1.000000" fill-rule="nonzero"/>
	<path id="Vector" d="M55.56 34.07C53.38 36.22 51.28 38.26 49.12 40.39C49.53 38.18 49.09 36.16 47.45 34.5C45.79 32.85 43.75 32.39 41.46 32.85C41.4 32.74 41.34 32.66 41.27 32.56C42.06 31.86 42.85 31.17 43.62 30.43C44.81 29.27 45.97 28.11 47.14 26.94C47.45 26.63 47.72 26.34 48.16 26.77C50.63 29.19 53.11 31.63 55.56 34.07ZM49.89 30.72C49.45 31.3 48.93 31.69 48.97 31.98C49.03 32.33 49.57 32.62 49.91 32.93C50.2 32.62 50.7 32.31 50.72 31.98C50.76 31.65 50.3 31.28 49.89 30.72Z" fill="#FFFFFF" fill-opacity="1.000000" fill-rule="nonzero"/>
	<path id="Vector" d="M37.63 32.7C32.56 31.98 29.08 35.39 29.81 40.37C29.56 40.21 29.35 40.12 29.21 39.98C27.46 38.26 25.73 36.53 23.99 34.81C23.51 34.34 23.38 34.01 23.95 33.47C26.15 31.34 28.33 29.17 30.5 27C31.06 26.42 31.41 26.4 32 27C33.62 28.69 35.32 30.31 36.99 31.96C37.18 32.12 37.34 32.35 37.63 32.7ZM30.37 32.04C29.79 31.57 29.42 31.05 29.15 31.09C28.77 31.15 28.46 31.67 28.13 31.98C28.44 32.29 28.71 32.79 29.06 32.85C29.35 32.89 29.75 32.43 30.37 32.04Z" fill="#FFFFFF" fill-opacity="1.000000" fill-rule="nonzero"/>
	<path id="Vector" d="M29.54 24.6C29.85 24.87 30.19 25.14 30.48 25.41C27.75 28.11 25.17 30.66 22.47 33.32C22.24 33.01 21.97 32.66 21.8 32.43C24.34 29.87 26.92 27.27 29.54 24.6Z" fill="#FFFFFF" fill-opacity="1.000000" fill-rule="nonzero"/>
	<path id="Vector" d="M59.06 30.66C58.73 31.09 58.48 31.4 58.16 31.81C57.69 31.36 57.33 31.05 57 30.72C54.92 28.65 52.86 26.58 50.76 24.54C50.32 24.12 50.24 23.81 50.72 23.36C51.13 22.95 51.45 22.97 51.84 23.36C54.17 25.7 56.52 28.01 58.87 30.35C58.95 30.41 59 30.55 59.06 30.66Z" fill="#FFFFFF" fill-opacity="1.000000" fill-rule="nonzero"/>
	<path id="Vector" d="M57.39 32.31C56.46 33.57 56.44 33.57 55.48 32.62C53.38 30.53 51.28 28.42 49.16 26.36C48.74 25.96 48.45 25.63 48.97 25.07C49.51 24.5 49.84 24.81 50.24 25.2C52.61 27.58 54.98 29.91 57.39 32.31Z" fill="#FFFFFF" fill-opacity="1.000000" fill-rule="nonzero"/>
	<path id="Vector" d="M28.67 23.83C26.05 26.42 23.47 28.94 20.87 31.5C19.7 30.84 19.68 30.72 20.66 29.75C22.7 27.72 24.74 25.72 26.75 23.69C27.75 22.7 27.75 22.7 28.67 23.83Z" fill="#FFFFFF" fill-opacity="1.000000" fill-rule="nonzero"/>
	<path id="Vector" d="M49.89 30.72C50.28 31.3 50.74 31.65 50.72 31.98C50.7 32.31 50.2 32.62 49.91 32.93C49.57 32.62 49.03 32.35 48.97 31.98C48.93 31.69 49.45 31.3 49.89 30.72Z" fill="#FFFFFF" fill-opacity="1.000000" fill-rule="nonzero"/>
	<path id="Vector" d="M30.37 32.04C29.75 32.43 29.37 32.89 29.04 32.83C28.69 32.79 28.42 32.27 28.11 31.96C28.44 31.65 28.75 31.13 29.13 31.07C29.42 31.05 29.79 31.59 30.37 32.04Z" fill="#FFFFFF" fill-opacity="1.000000" fill-rule="nonzero"/>
	<path id="Car Doctor" d="M4.8 51.51Q5.3 51.26 5.94 51.26Q6.51 51.26 7.11 51.47Q7.71 51.68 8.3 51.96L9.02 50.14Q8.97 50.12 8.93 50.1Q8.25 49.78 7.51 49.6Q6.72 49.4 5.94 49.4Q4.74 49.4 3.82 49.8Q3.16 50.08 2.65 50.53Q2.45 50.71 2.27 50.92Q1.65 51.65 1.32 52.64Q1 53.64 1 54.83Q1 56.45 1.5 57.67Q1.83 58.45 2.39 59.01Q2.69 59.32 3.05 59.55Q4.1 60.23 5.73 60.23Q6.57 60.23 7.25 60.1Q7.93 59.97 8.63 59.69L8.63 57.81Q7.87 58.08 7.22 58.22Q6.58 58.37 5.94 58.37Q5.02 58.37 4.43 57.95Q4.37 57.91 4.32 57.87Q3.82 57.46 3.57 56.75Q3.3 55.96 3.3 54.85Q3.3 54.02 3.47 53.35Q3.64 52.69 3.98 52.22Q4.2 51.91 4.5 51.69Q4.65 51.59 4.8 51.51ZM38.36 57.69Q39.04 56.49 39.04 54.72Q39.04 53.02 38.37 51.87Q38.07 51.35 37.65 50.95Q37.15 50.46 36.48 50.14Q35.27 49.55 33.61 49.55L30.3 49.55L30.3 60.08L33.29 60.08Q35.1 60.08 36.39 59.48Q37.16 59.12 37.71 58.55Q38.09 58.17 38.36 57.69ZM61.86 58.4Q61.52 58.48 61.16 58.48Q60.77 58.48 60.51 58.29Q60.49 58.27 60.47 58.25Q60.43 58.22 60.4 58.19Q60.2 57.96 60.2 57.56L60.2 53.68L62.46 53.68L62.46 52.03L60.2 52.03L60.2 50.31L58.8 50.31L58.16 52.01L56.95 52.75L56.95 53.68L58.01 53.68L58.01 57.56Q58.01 58.6 58.33 59.18Q58.55 59.57 58.88 59.8Q59.04 59.91 59.23 59.99Q59.81 60.23 60.53 60.23Q61.15 60.23 61.67 60.12Q62.19 60.02 62.54 59.86L62.54 58.22Q62.2 58.33 61.86 58.4ZM36.38 52.85Q36.72 53.61 36.72 54.77Q36.72 56.49 35.93 57.37Q35.88 57.42 35.82 57.47Q35.03 58.24 33.5 58.24L32.54 58.24L32.54 51.38L33.73 51.38Q34.71 51.38 35.37 51.74Q35.56 51.84 35.73 51.98Q36.14 52.32 36.38 52.85ZM16.48 52.57Q15.61 51.86 13.99 51.86Q13.14 51.86 12.35 52.06Q11.55 52.25 10.91 52.59L11.64 54.07Q12.2 53.82 12.76 53.66Q13.07 53.57 13.38 53.52Q13.64 53.49 13.9 53.49Q14.49 53.49 14.82 53.78Q14.82 53.78 14.83 53.79Q14.84 53.8 14.85 53.81Q15.16 54.11 15.16 54.72L15.16 55.07L13.76 55.11Q11.96 55.18 11.06 55.79Q10.77 55.98 10.58 56.24Q10.16 56.8 10.16 57.68Q10.16 58.55 10.48 59.11Q10.68 59.45 10.96 59.69Q11.15 59.84 11.37 59.95Q11.94 60.23 12.65 60.23Q13.32 60.23 13.79 60.1Q14.25 59.97 14.61 59.7Q14.61 59.7 14.62 59.69Q14.98 59.42 15.32 58.99L15.38 58.99L15.81 60.08L17.34 60.08L17.34 54.72Q17.34 53.53 16.76 52.84Q16.63 52.69 16.48 52.57ZM24.48 51.9Q24.26 51.88 24.1 51.88Q23.65 51.88 23.25 52.02Q23.18 52.05 23.11 52.08Q22.82 52.21 22.57 52.39Q22.43 52.5 22.29 52.63Q21.94 52.97 21.7 53.38L21.59 53.38L21.27 52.03L19.6 52.03L19.6 60.08L21.8 60.08L21.8 55.98Q21.8 55.41 21.98 55.02Q22.14 54.68 22.4 54.46Q22.44 54.42 22.48 54.39Q22.56 54.33 22.64 54.28Q22.9 54.12 23.2 54.04Q23.25 54.02 23.3 54.01Q23.65 53.93 24.02 53.93Q24.17 53.93 24.37 53.95Q24.56 53.97 24.67 54L24.84 51.94Q24.7 51.91 24.48 51.9ZM48.1 57.83Q48.37 57.05 48.37 56.04Q48.37 54.7 47.87 53.77Q47.53 53.15 47.03 52.73Q46.78 52.52 46.49 52.36Q46.47 52.35 46.44 52.33Q45.58 51.88 44.49 51.88Q43.27 51.88 42.39 52.36Q42.05 52.55 41.78 52.8Q41.33 53.2 41.04 53.77Q40.56 54.7 40.56 56.04Q40.56 57.05 40.85 57.83Q41.13 58.6 41.65 59.14Q41.87 59.36 42.12 59.54Q42.47 59.79 42.88 59.95Q43.59 60.23 44.44 60.23Q45.35 60.23 46.07 59.95Q46.58 59.76 46.99 59.44Q47.16 59.3 47.31 59.14Q47.83 58.6 48.1 57.83ZM51.42 59.79Q52.26 60.23 53.45 60.23Q54.3 60.23 54.85 60.09Q54.86 60.08 54.88 60.08Q55.41 59.94 55.9 59.63L55.9 57.75Q55.4 58.08 54.87 58.26Q54.33 58.45 53.65 58.45Q53.11 58.45 52.74 58.2Q52.73 58.2 52.72 58.19Q52.34 57.94 52.14 57.41Q51.93 56.88 51.93 56.08Q51.93 55.27 52.12 54.73Q52.31 54.2 52.68 53.93Q52.69 53.92 52.69 53.92Q53.07 53.65 53.65 53.65Q54.09 53.65 54.54 53.78Q54.99 53.92 55.51 54.13L56.15 52.43Q55.7 52.2 55.09 52.04Q54.48 51.88 53.65 51.88Q52.47 51.88 51.58 52.32Q51.29 52.46 51.04 52.66Q50.53 53.06 50.19 53.69Q49.69 54.62 49.69 56.1Q49.69 57.52 50.13 58.44Q50.43 59.05 50.9 59.44Q51.13 59.64 51.42 59.79ZM71.22 57.83Q71.49 57.05 71.49 56.04Q71.49 54.7 70.99 53.77Q70.65 53.15 70.15 52.73Q69.9 52.52 69.61 52.36Q69.59 52.35 69.56 52.33Q68.7 51.88 67.61 51.88Q66.39 51.88 65.51 52.36Q65.17 52.55 64.9 52.8Q64.45 53.2 64.16 53.77Q63.68 54.7 63.68 56.04Q63.68 57.05 63.97 57.83Q64.25 58.6 64.77 59.14Q64.99 59.36 65.24 59.54Q65.59 59.79 66 59.95Q66.71 60.23 67.56 60.23Q68.47 60.23 69.19 59.95Q69.7 59.76 70.11 59.44Q70.28 59.3 70.43 59.14Q70.95 58.6 71.22 57.83ZM78.18 51.9Q77.96 51.88 77.8 51.88Q77.35 51.88 76.95 52.02Q76.88 52.05 76.81 52.08Q76.52 52.21 76.28 52.39Q76.13 52.5 75.99 52.63Q75.64 52.97 75.4 53.38L75.29 53.38L74.97 52.03L73.3 52.03L73.3 60.08L75.5 60.08L75.5 55.98Q75.5 55.41 75.68 55.02Q75.84 54.68 76.1 54.46Q76.14 54.42 76.18 54.39Q76.26 54.33 76.34 54.28Q76.6 54.12 76.9 54.04Q76.95 54.02 77.01 54.01Q77.36 53.93 77.73 53.93Q77.87 53.93 78.07 53.95Q78.27 53.97 78.37 54L78.54 51.94Q78.4 51.91 78.18 51.9ZM42.97 57.37Q42.8 56.83 42.8 56.04Q42.8 54.85 43.19 54.25Q43.31 54.07 43.46 53.95Q43.84 53.65 44.46 53.65Q45.05 53.65 45.42 53.92Q45.42 53.92 45.43 53.93Q45.79 54.2 45.95 54.71Q46.12 55.24 46.12 56.04Q46.12 56.83 45.95 57.37Q45.78 57.91 45.42 58.19Q45.06 58.46 44.47 58.46Q43.88 58.46 43.51 58.19Q43.15 57.91 42.97 57.37ZM66.09 57.37Q65.92 56.83 65.92 56.04Q65.92 54.85 66.31 54.25Q66.43 54.07 66.58 53.95Q66.96 53.65 67.58 53.65Q68.17 53.65 68.54 53.92Q68.54 53.92 68.55 53.93Q68.91 54.2 69.07 54.71Q69.24 55.24 69.24 56.04Q69.24 56.83 69.07 57.37Q68.9 57.91 68.54 58.19Q68.18 58.46 67.59 58.46Q67 58.46 66.63 58.19Q66.27 57.91 66.09 57.37ZM14.31 56.38L15.16 56.35L15.16 57.01Q15.16 57.59 14.88 57.97Q14.79 58.1 14.67 58.2Q14.52 58.33 14.36 58.42Q13.97 58.62 13.48 58.62Q13 58.62 12.71 58.41Q12.67 58.38 12.63 58.34Q12.41 58.12 12.41 57.69Q12.41 57.36 12.55 57.1Q12.65 56.91 12.83 56.76Q13.24 56.41 14.31 56.38Z" fill="#FFFFFF" fill-opacity="1.000000" fill-rule="evenodd"/>
</svg>
